<?xml version="1.0" encoding="utf-8"?>
<!-- Generator: Adobe Illustrator 17.0.2, SVG Export Plug-In . SVG Version: 6.00 Build 0)  -->
<!DOCTYPE svg PUBLIC "-//W3C//DTD SVG 1.1//EN" "http://www.w3.org/Graphics/SVG/1.1/DTD/svg11.dtd">
<svg version="1.1" xmlns="http://www.w3.org/2000/svg" xmlns:xlink="http://www.w3.org/1999/xlink" x="0px" y="0px"
	 width="796.871px" height="213.142px" viewBox="66.629 205.716 796.871 213.142"
	 enable-background="new 66.629 205.716 796.871 213.142" xml:space="preserve">
<g id="Layer_2">
</g>
<g id="Layer_1">
	<g>
		<circle fill="#44B29D" cx="278.61" cy="249.243" r="28.419"/>
		<circle fill="#EFC94C" cx="174.262" cy="245.5" r="28.419"/>
		<circle fill="#344D5C" cx="208.717" cy="312.96" r="69.129"/>
		<circle fill="#DF5A49" cx="145.836" cy="368.641" r="36.733"/>
		<circle fill="#E27A3E" cx="195.104" cy="364.228" r="20.837"/>
	</g>
	<g>
		<path fill="#344D5C" d="M255.563,310.05c-4.086,0-7.437,0.833-10.054,2.499c-2.618,1.665-3.926,4.185-3.926,7.555
			c0,3.373,1.309,5.949,3.926,7.734c2.618,1.785,8.189,3.709,16.718,5.77c8.526,2.064,14.951,4.959,19.276,8.687
			c4.322,3.73,6.484,9.222,6.484,16.479c0,7.258-2.737,13.148-8.21,17.67c-5.473,4.521-12.653,6.782-21.536,6.782
			c-13.01,0-24.552-4.481-34.625-13.446l8.805-10.589c8.407,7.299,17.134,10.946,26.177,10.946c4.522,0,8.11-0.97,10.768-2.915
			c2.656-1.943,3.986-4.522,3.986-7.734s-1.249-5.711-3.748-7.496c-2.499-1.784-6.802-3.409-12.91-4.878
			c-6.109-1.467-10.75-2.815-13.921-4.046c-3.174-1.229-5.991-2.835-8.449-4.819c-4.919-3.727-7.377-9.439-7.377-17.133
			c0-7.693,2.796-13.624,8.389-17.789c5.592-4.165,12.512-6.246,20.763-6.246c5.314,0,10.589,0.873,15.825,2.618
			c5.235,1.745,9.757,4.205,13.564,7.377l-7.496,10.589c-2.46-2.22-5.791-4.045-9.995-5.473
			C263.792,310.764,259.647,310.05,255.563,310.05z"/>
		<path fill="#344D5C" d="M316.185,329.683v32.127c0,3.015,0.792,5.414,2.38,7.199c1.586,1.784,3.807,2.677,6.663,2.677
			s5.593-1.386,8.21-4.165l5.473,9.4c-4.682,4.206-9.857,6.307-15.528,6.307c-5.673,0-10.512-1.963-14.517-5.89
			c-4.006-3.926-6.008-9.222-6.008-15.885v-62.349h13.326v19.871h16.658v10.709H316.185z"/>
		<path fill="#344D5C" d="M354.379,374.184c-5.949-6.028-8.925-13.961-8.925-23.797c0-9.835,3.053-17.688,9.163-23.559
			c6.107-5.87,13.326-8.805,21.655-8.805c8.329,0,15.19,3.967,20.585,11.898v-10.947h13.326v63.301h-13.326v-10.352
			c-2.54,3.65-5.771,6.446-9.698,8.389c-3.927,1.945-7.874,2.915-11.839,2.915C367.307,383.227,360.327,380.213,354.379,374.184z
			 M358.781,350.922c0,6.069,1.942,11.006,5.83,14.814c3.885,3.807,8.448,5.711,13.683,5.711c5.235,0,9.677-1.923,13.327-5.771
			c3.647-3.847,5.473-8.785,5.473-14.814c0-6.028-1.825-11.066-5.473-15.111c-3.651-4.046-8.132-6.069-13.446-6.069
			c-5.315,0-9.876,2.023-13.684,6.069C360.685,339.797,358.781,344.854,358.781,350.922z"/>
		<path fill="#344D5C" d="M462.655,331.467c-6.585,0-11.542,2.142-14.873,6.426c-3.331,4.283-4.996,10.036-4.996,17.253v27.129
			h-13.327v-63.301h13.327v12.732c2.142-3.965,5.056-7.217,8.745-9.757c3.688-2.538,7.593-3.847,11.72-3.926l0.118,13.445
			C463.131,331.467,462.894,331.467,462.655,331.467z"/>
		<path fill="#344D5C" d="M509.891,331.467c-6.585,0-11.542,2.142-14.873,6.426c-3.331,4.283-4.996,10.036-4.996,17.253v27.129
			h-13.327v-63.301h13.327v12.732c2.142-3.965,5.056-7.217,8.745-9.757c3.688-2.538,7.593-3.847,11.72-3.926l0.118,13.445
			C510.367,331.467,510.13,331.467,509.891,331.467z"/>
		<path fill="#344D5C" d="M550.226,395.363c11.739,0,17.61-7.457,17.61-22.37v-3.927c-5.316,5.473-12.097,8.21-20.347,8.21
			c-16.419,0-24.631-9.002-24.631-27.01v-31.174h13.327v25.225c0,7.377,1.13,12.594,3.391,15.646
			c2.261,3.054,6.147,4.581,11.662,4.581c5.511,0,9.536-1.407,12.076-4.224c2.537-2.815,4.046-7.079,4.522-12.791v-28.557h13.326
			v54.377c0,11.025-2.876,19.473-8.626,25.344c-5.752,5.87-13.188,8.805-22.31,8.805c-6.982,0-13.109-1.666-18.383-4.997
			c-5.276-3.332-9.102-8.091-11.483-14.279l12.018-5.117C535.472,391.277,541.421,395.363,550.226,395.363z"/>
		<path fill="#344D5C" d="M665.522,309.99c8.011,7.258,12.017,17.354,12.017,30.282c0,12.93-3.888,23.164-11.66,30.699
			c-7.776,7.537-19.674,11.303-35.695,11.303h-27.605v-83.171h28.555C646.048,299.103,657.51,302.733,665.522,309.99z
			 M663.381,340.629c0-19.038-10.908-28.556-32.722-28.556h-14.039v56.994h15.587c10.072,0,17.788-2.398,23.143-7.199
			C660.703,357.07,663.381,349.99,663.381,340.629z"/>
		<path fill="#344D5C" d="M722.515,318.023c8.645,0,15.825,2.4,21.537,7.199c5.711,4.8,8.607,11.047,8.686,18.74l0.119,0.238
			l-46.167,19.394c4.123,5.078,9.736,7.616,16.837,7.616c7.098,0,12.95-2.776,17.551-8.329l7.853,8.686
			c-7.537,7.775-16.421,11.661-26.653,11.661c-8.965,0-16.658-2.975-23.084-8.925c-6.425-5.949-9.638-13.802-9.638-23.559
			c0-6.741,1.667-12.672,4.998-17.789c3.331-5.116,7.456-8.883,12.375-11.303C711.846,319.233,717.043,318.023,722.515,318.023z
			 M702.407,350.981c0,1.032,0.039,1.785,0.119,2.261l35.101-15.111c-2.698-5.235-7.496-7.853-14.397-7.853
			c-5.237,0-10.016,1.825-14.339,5.473C704.568,339.4,702.407,344.478,702.407,350.981z"/>
		<path fill="#344D5C" d="M776.655,318.974l13.564,20.823l14.041-20.823h15.825l-22.132,30.937l23.083,32.364h-16.419
			l-15.112-21.061l-14.754,21.061h-15.587l22.487-32.246l-21.298-31.055H776.655z"/>
	</g>
	<g>
		<path fill="#DF5A49" d="M252.23,305.637c-4.086,0-7.437,0.833-10.054,2.499c-2.618,1.665-3.926,4.185-3.926,7.555
			c0,3.373,1.309,5.949,3.926,7.734c2.618,1.785,8.189,3.709,16.718,5.77c8.526,2.064,14.951,4.959,19.276,8.687
			c4.322,3.73,6.484,9.222,6.484,16.479c0,7.258-2.737,13.148-8.21,17.67c-5.473,4.521-12.653,6.782-21.536,6.782
			c-13.01,0-24.552-4.481-34.625-13.446l8.805-10.589c8.407,7.299,17.134,10.946,26.177,10.946c4.522,0,8.11-0.97,10.768-2.915
			c2.656-1.943,3.986-4.522,3.986-7.734s-1.249-5.711-3.748-7.496c-2.499-1.784-6.802-3.409-12.91-4.878
			c-6.109-1.467-10.75-2.815-13.921-4.046c-3.174-1.229-5.991-2.835-8.449-4.819c-4.919-3.727-7.377-9.439-7.377-17.133
			c0-7.693,2.796-13.624,8.389-17.789c5.592-4.165,12.512-6.246,20.763-6.246c5.314,0,10.589,0.873,15.825,2.618
			c5.235,1.745,9.757,4.205,13.564,7.377l-7.496,10.589c-2.46-2.22-5.791-4.045-9.995-5.473
			C260.459,306.351,256.315,305.637,252.23,305.637z"/>
		<path fill="#DF5A49" d="M312.853,325.27v32.127c0,3.016,0.792,5.414,2.38,7.199c1.586,1.784,3.807,2.677,6.663,2.677
			c2.856,0,5.593-1.386,8.21-4.165l5.473,9.4c-4.682,4.206-9.857,6.307-15.528,6.307c-5.673,0-10.512-1.963-14.517-5.89
			c-4.006-3.927-6.008-9.222-6.008-15.885V294.69h13.326v19.871h16.658v10.709H312.853z"/>
		<path fill="#DF5A49" d="M351.046,369.771c-5.949-6.028-8.925-13.961-8.925-23.797c0-9.835,3.053-17.688,9.163-23.559
			c6.107-5.87,13.326-8.805,21.655-8.805s15.19,3.967,20.585,11.898v-10.947h13.326v63.301h-13.326V367.51
			c-2.54,3.65-5.771,6.446-9.698,8.389c-3.926,1.945-7.874,2.915-11.839,2.915C363.975,378.814,356.995,375.8,351.046,369.771z
			 M355.449,346.509c0,6.069,1.942,11.006,5.83,14.814c3.885,3.807,8.448,5.711,13.683,5.711s9.677-1.923,13.327-5.771
			c3.647-3.847,5.473-8.785,5.473-14.814c0-6.028-1.825-11.066-5.473-15.111c-3.651-4.046-8.132-6.069-13.446-6.069
			c-5.315,0-9.876,2.023-13.684,6.069C357.352,335.384,355.449,340.441,355.449,346.509z"/>
		<path fill="#DF5A49" d="M459.323,327.054c-6.585,0-11.542,2.142-14.873,6.426c-3.331,4.283-4.996,10.036-4.996,17.253v27.129
			h-13.327v-63.301h13.327v12.732c2.142-3.965,5.056-7.217,8.745-9.757c3.688-2.538,7.593-3.847,11.72-3.926l0.118,13.445
			C459.799,327.054,459.562,327.054,459.323,327.054z"/>
		<path fill="#DF5A49" d="M506.558,327.054c-6.585,0-11.542,2.142-14.873,6.426c-3.331,4.283-4.996,10.036-4.996,17.253v27.129
			h-13.327v-63.301h13.327v12.732c2.142-3.965,5.056-7.217,8.745-9.757c3.688-2.538,7.593-3.847,11.72-3.926l0.118,13.445
			C507.035,327.054,506.797,327.054,506.558,327.054z"/>
		<path fill="#DF5A49" d="M546.893,390.95c11.739,0,17.61-7.457,17.61-22.37v-3.926c-5.316,5.473-12.097,8.21-20.347,8.21
			c-16.419,0-24.631-9.002-24.631-27.01V314.68h13.327v25.225c0,7.377,1.13,12.594,3.391,15.646
			c2.261,3.054,6.147,4.581,11.662,4.581c5.511,0,9.536-1.407,12.076-4.224c2.537-2.815,4.046-7.079,4.522-12.791v-28.557h13.326
			v54.377c0,11.025-2.876,19.473-8.626,25.344c-5.752,5.87-13.188,8.805-22.31,8.805c-6.982,0-13.109-1.666-18.383-4.997
			c-5.276-3.332-9.102-8.091-11.483-14.279l12.018-5.117C532.14,386.864,538.088,390.95,546.893,390.95z"/>
		<path fill="#DF5A49" d="M662.19,305.577c8.011,7.258,12.017,17.354,12.017,30.282c0,12.93-3.888,23.164-11.66,30.699
			c-7.776,7.537-19.674,11.303-35.695,11.303h-27.605V294.69h28.555C642.716,294.69,654.177,298.32,662.19,305.577z
			 M660.049,336.216c0-19.038-10.908-28.556-32.722-28.556h-14.039v56.994h15.587c10.072,0,17.788-2.398,23.143-7.199
			C657.371,352.657,660.049,345.577,660.049,336.216z"/>
		<path fill="#DF5A49" d="M719.183,313.609c8.645,0,15.825,2.4,21.537,7.199c5.711,4.8,8.607,11.047,8.686,18.74l0.119,0.238
			l-46.167,19.394c4.123,5.078,9.736,7.616,16.837,7.616c7.098,0,12.95-2.776,17.551-8.329l7.853,8.686
			c-7.537,7.775-16.421,11.661-26.653,11.661c-8.965,0-16.658-2.975-23.085-8.925c-6.425-5.949-9.638-13.802-9.638-23.559
			c0-6.741,1.667-12.672,4.998-17.789c3.331-5.116,7.456-8.883,12.375-11.303C708.514,314.82,713.711,313.609,719.183,313.609z
			 M699.075,346.568c0,1.032,0.039,1.785,0.119,2.261l35.101-15.111c-2.698-5.235-7.496-7.853-14.397-7.853
			c-5.237,0-10.016,1.825-14.339,5.473C701.236,334.987,699.075,340.065,699.075,346.568z"/>
		<path fill="#DF5A49" d="M773.323,314.561l13.564,20.823l14.041-20.823h15.825l-22.132,30.937l23.083,32.364h-16.419
			l-15.112-21.061l-14.754,21.061h-15.587l22.487-32.246l-21.298-31.055H773.323z"/>
	</g>
</g>
<g id="Layer_3" display="none">
	<g display="inline">
		<g>
			<g>
				<circle fill="#EFC94C" cx="526.069" cy="557.285" r="21.679"/>
				<circle fill="#EFC94C" cx="267.449" cy="42.077" r="25.415"/>
			</g>
			<g>
				<circle fill="#EFC94C" cx="560.46" cy="227.152" r="19.464"/>
				<circle fill="#EFC94C" cx="254.827" cy="359.221" r="17.457"/>
			</g>
			<g>
				<circle fill="#EFC94C" cx="134.526" cy="147.461" r="21.679"/>
				
					<ellipse transform="matrix(0.492 -0.8706 0.8706 0.492 -55.5253 793.4834)" fill="#EFC94C" cx="652.192" cy="444.323" rx="25.654" ry="25.601"/>
			</g>
			<g>
				<circle fill="#EFC94C" cx="307.532" cy="437.106" r="21.679"/>
				
					<ellipse transform="matrix(-0.8406 -0.5417 0.5417 -0.8406 808.7761 556.5896)" fill="#EFC94C" cx="486.287" cy="159.288" rx="17.609" ry="18.409"/>
			</g>
		</g>
		<polyline fill="#EFC94C" points="262.168,43.316 371.759,262.39 136.883,143.583 130.3,154.412 366.6,294.718 253.263,354.622 
			257.013,363.977 369.929,321.189 301.873,434.305 310.78,439.08 395.975,329.862 520.739,559.317 531.005,555.284 431.071,330.36 
			649.324,448.549 655.274,439.292 437.69,294.666 563.743,228.601 561.127,221.314 431.392,271.597 489.561,163.277 
			481.356,156.287 403.605,265.789 270.257,39.062 		"/>
	</g>
	<g display="inline">
		<g>
			<path fill="#DF5A49" d="M398.588,456.096c-45.135-23.921-48.504,121.419-68.712,83.717
				c-41.91-78.192,14.186-148.422,72.586-137.076"/>
			<path fill="#DF5A49" d="M410.642,456.029c44.869-24.415,49.834,120.88,69.627,82.957c41.049-78.647-15.815-148.258-74.087-136.27
				"/>
			
				<ellipse transform="matrix(1 -0.0055 0.0055 1 -2.9352 2.2323)" fill="#344D5C" cx="405.173" cy="535.794" rx="37.703" ry="13.718"/>
			<path fill="#344D5C" d="M367.474,536.469c-0.19-34.618,16.536-62.774,37.358-62.888c20.822-0.114,37.856,27.856,38.046,62.474"/>
			<path fill="#DF5A49" d="M481.415,322.444c0.534,97.21,0.934,170.149-75.639,170.569c-82.481,0.453-76.973-72.519-77.507-169.729
				s32.86-259.358,75.15-259.59S480.882,225.234,481.415,322.444z"/>
		</g>
		<circle fill="#344D5C" cx="404.224" cy="198.522" r="25.554"/>
		<circle fill="#DF5A49" cx="402.613" cy="198.112" r="22.27"/>
	</g>
	<g display="inline">
		<path fill="#EFC94C" d="M165.708,333.571h-31.409v-71.748h27.919c4.858,0,9.049,0.583,12.574,1.745
			c3.524,1.165,6.141,2.738,7.852,4.722c3.285,3.695,4.927,7.87,4.927,12.523c0,5.611-1.781,9.786-5.338,12.522
			c-1.3,0.959-2.191,1.557-2.669,1.797c-0.48,0.24-1.334,0.633-2.566,1.18c4.447,0.959,7.988,2.961,10.624,6.005
			c2.633,3.045,3.952,6.825,3.952,11.342c0,4.995-1.712,9.409-5.132,13.24C182.403,331.348,175.492,333.571,165.708,333.571z
			 M146.411,291.589h15.396c8.759,0,13.139-2.977,13.139-8.93c0-3.421-1.062-5.885-3.182-7.39c-2.122-1.504-5.407-2.258-9.854-2.258
			h-15.499V291.589z M146.411,322.382h18.989c4.447,0,7.853-0.701,10.213-2.104c2.361-1.401,3.542-4.054,3.542-7.954
			c0-6.364-5.099-9.546-15.294-9.546h-17.45V322.382z"/>
		<path fill="#EFC94C" d="M250.798,326.232c-5.474,5.44-12.315,8.16-20.529,8.16c-8.211,0-15.054-2.72-20.528-8.16
			c-5.475-5.44-8.211-12.095-8.211-19.964c0-7.869,2.736-14.524,8.211-19.964c5.474-5.441,12.317-8.16,20.528-8.16
			c8.214,0,15.055,2.72,20.529,8.16c5.474,5.44,8.211,12.095,8.211,19.964C259.009,314.137,256.272,320.792,250.798,326.232z
			 M217.901,319.149c3.249,3.32,7.372,4.978,12.368,4.978c4.995,0,9.119-1.658,12.371-4.978c3.249-3.318,4.875-7.611,4.875-12.881
			c0-5.269-1.626-9.562-4.875-12.882c-3.252-3.318-7.376-4.978-12.371-4.978c-4.995,0-9.119,1.66-12.368,4.978
			c-3.251,3.32-4.875,7.613-4.875,12.882C213.026,311.538,214.65,315.831,217.901,319.149z"/>
		<path fill="#EFC94C" d="M310.229,308.526v-29.562h11.495v54.607h-11.495v-9.956c-1.847,3.353-4.398,5.989-7.647,7.903
			c-3.251,1.916-6.758,2.874-10.521,2.874c-6.159,0-11.138-1.882-14.934-5.645c-3.798-3.763-5.697-9.203-5.697-16.321v-33.462
			h11.495v29.973c0,10.059,4.174,15.089,12.523,15.089c3.968,0,7.425-1.317,10.366-3.952
			C308.756,317.439,310.229,313.59,310.229,308.526z"/>
		<path fill="#EFC94C" d="M349.85,304.009v29.561h-11.497v-54.607h11.497v9.957c1.847-3.352,4.395-5.987,7.646-7.903
			c3.249-1.915,6.758-2.874,10.521-2.874c6.159,0,11.138,1.883,14.935,5.645c3.798,3.764,5.697,9.204,5.697,16.32v33.462h-11.497
			v-29.972c0-10.059-4.175-15.089-12.523-15.089c-3.969,0-7.425,1.318-10.366,3.952C351.32,295.097,349.85,298.946,349.85,304.009z"
			/>
		<path fill="#EFC94C" d="M408.869,326.591c-5.133-5.2-7.699-12.043-7.699-20.529c0-8.484,2.634-15.258,7.903-20.323
			c5.269-5.063,11.548-7.596,18.835-7.596c7.288,0,13.155,3.079,17.604,9.238v-29.972h11.495v76.161h-11.495v-8.211
			c-4.243,6.022-10.436,9.033-18.579,9.033C420.022,334.392,414.001,331.792,408.869,326.591z M412.667,306.524
			c0,5.235,1.676,9.495,5.029,12.78c3.352,3.284,7.288,4.927,11.804,4.927s8.348-1.659,11.497-4.978
			c3.146-3.318,4.721-7.578,4.721-12.779c0-5.2-1.575-9.546-4.721-13.036c-3.149-3.49-7.015-5.235-11.6-5.235
			s-8.519,1.745-11.803,5.235C414.308,296.927,412.667,301.289,412.667,306.524z"/>
		<path fill="#EFC94C" d="M496.988,271.266c-3.525,0-6.415,0.718-8.673,2.156c-2.258,1.437-3.387,3.61-3.387,6.518
			c0,2.91,1.129,5.132,3.387,6.672c2.258,1.54,7.065,3.199,14.422,4.978c7.355,1.781,12.897,4.277,16.628,7.493
			c3.728,3.217,5.594,7.955,5.594,14.216c0,6.261-2.361,11.342-7.082,15.243c-4.722,3.9-10.916,5.851-18.579,5.851
			c-11.224,0-21.179-3.865-29.87-11.599l7.596-9.135c7.252,6.296,14.781,9.443,22.581,9.443c3.901,0,6.996-0.837,9.29-2.514
			c2.292-1.676,3.437-3.901,3.437-6.672c0-2.771-1.078-4.927-3.233-6.467c-2.155-1.539-5.868-2.941-11.136-4.208
			c-5.271-1.266-9.273-2.429-12.01-3.49c-2.737-1.06-5.166-2.445-7.287-4.157c-4.245-3.215-6.364-8.142-6.364-14.78
			c0-6.637,2.411-11.753,7.235-15.345c4.825-3.593,10.794-5.388,17.912-5.388c4.583,0,9.136,0.753,13.652,2.258
			c4.516,1.506,8.416,3.627,11.701,6.364l-6.467,9.135c-2.122-1.915-4.997-3.49-8.622-4.722
			C504.087,271.882,500.512,271.266,496.988,271.266z"/>
		<path fill="#EFC94C" d="M549.284,288.202v27.714c0,2.601,0.684,4.67,2.052,6.21c1.369,1.539,3.286,2.309,5.748,2.309
			c2.464,0,4.824-1.196,7.082-3.593l4.722,8.109c-4.039,3.628-8.503,5.441-13.396,5.441c-4.892,0-9.067-1.694-12.521-5.081
			c-3.457-3.387-5.185-7.955-5.185-13.703v-53.785h11.497v17.141h14.37v9.238H549.284z"/>
		<path fill="#EFC94C" d="M582.232,326.591c-5.133-5.2-7.699-12.043-7.699-20.529c0-8.484,2.634-15.258,7.903-20.323
			c5.269-5.063,11.497-7.596,18.682-7.596s13.103,3.422,17.757,10.264v-9.443h11.495v54.607h-11.495v-8.93
			c-2.191,3.148-4.978,5.56-8.366,7.237c-3.387,1.678-6.793,2.515-10.213,2.515C593.385,334.392,587.363,331.792,582.232,326.591z
			 M586.03,306.524c0,5.235,1.676,9.495,5.029,12.78c3.352,3.284,7.288,4.927,11.804,4.927c4.516,0,8.348-1.659,11.497-4.978
			c3.146-3.318,4.721-7.578,4.721-12.779c0-5.2-1.575-9.546-4.721-13.036c-3.149-3.49-7.015-5.235-11.6-5.235
			c-4.584,0-8.519,1.745-11.803,5.235C587.671,296.927,586.03,301.289,586.03,306.524z"/>
		<path fill="#EFC94C" d="M675.637,289.742c-5.68,0-9.957,1.847-12.83,5.543c-2.873,3.695-4.31,8.657-4.31,14.883v23.403h-11.497
			v-54.607h11.497v10.983c1.847-3.421,4.362-6.226,7.544-8.417c3.181-2.189,6.55-3.318,10.11-3.387l0.102,11.598
			C676.048,289.742,675.843,289.742,675.637,289.742z"/>
	</g>
	<g display="inline">
		<path fill="#44B29D" d="M169.357,329.009h-31.409v-71.748h27.919c4.858,0,9.049,0.583,12.574,1.745
			c3.524,1.165,6.141,2.738,7.852,4.722c3.285,3.695,4.927,7.87,4.927,12.523c0,5.611-1.781,9.786-5.338,12.522
			c-1.3,0.959-2.191,1.557-2.669,1.797c-0.48,0.24-1.334,0.633-2.566,1.18c4.447,0.959,7.988,2.961,10.624,6.005
			c2.633,3.045,3.952,6.825,3.952,11.342c0,4.995-1.712,9.409-5.132,13.24C186.053,326.786,179.142,329.009,169.357,329.009z
			 M150.06,287.027h15.396c8.759,0,13.139-2.977,13.139-8.93c0-3.421-1.062-5.885-3.182-7.39c-2.122-1.504-5.407-2.258-9.854-2.258
			H150.06V287.027z M150.06,317.82h18.989c4.447,0,7.853-0.701,10.213-2.104c2.361-1.401,3.542-4.054,3.542-7.954
			c0-6.364-5.099-9.546-15.294-9.546h-17.45V317.82z"/>
		<path fill="#44B29D" d="M254.448,321.67c-5.474,5.44-12.315,8.16-20.529,8.16c-8.211,0-15.054-2.72-20.528-8.16
			c-5.475-5.44-8.211-12.095-8.211-19.964c0-7.869,2.736-14.524,8.211-19.964c5.474-5.441,12.317-8.16,20.528-8.16
			c8.214,0,15.055,2.72,20.529,8.16c5.474,5.44,8.211,12.095,8.211,19.964C262.659,309.575,259.922,316.23,254.448,321.67z
			 M221.551,314.587c3.249,3.32,7.372,4.978,12.368,4.978c4.995,0,9.119-1.658,12.371-4.978c3.249-3.318,4.875-7.611,4.875-12.881
			c0-5.269-1.626-9.562-4.875-12.882c-3.252-3.318-7.376-4.978-12.371-4.978c-4.995,0-9.119,1.66-12.368,4.978
			c-3.251,3.32-4.875,7.613-4.875,12.882C216.675,306.976,218.3,311.269,221.551,314.587z"/>
		<path fill="#44B29D" d="M313.879,303.964v-29.562h11.495v54.607h-11.495v-9.956c-1.847,3.353-4.398,5.988-7.647,7.903
			c-3.251,1.916-6.758,2.874-10.521,2.874c-6.159,0-11.138-1.882-14.934-5.645c-3.798-3.763-5.697-9.203-5.697-16.321v-33.462
			h11.495v29.973c0,10.059,4.174,15.089,12.523,15.089c3.968,0,7.425-1.317,10.366-3.952
			C312.406,312.877,313.879,309.029,313.879,303.964z"/>
		<path fill="#44B29D" d="M353.499,299.447v29.561h-11.497v-54.607h11.497v9.957c1.847-3.352,4.395-5.987,7.646-7.904
			c3.249-1.915,6.758-2.874,10.521-2.874c6.159,0,11.138,1.883,14.935,5.645c3.798,3.764,5.697,9.204,5.697,16.32v33.462h-11.497
			v-29.972c0-10.059-4.175-15.089-12.523-15.089c-3.969,0-7.425,1.318-10.366,3.952
			C354.969,290.535,353.499,294.384,353.499,299.447z"/>
		<path fill="#44B29D" d="M412.519,322.029c-5.133-5.2-7.699-12.043-7.699-20.529c0-8.484,2.634-15.258,7.903-20.323
			c5.269-5.063,11.548-7.596,18.835-7.596c7.288,0,13.155,3.079,17.604,9.238v-29.972h11.495v76.161h-11.495v-8.211
			c-4.243,6.022-10.436,9.033-18.579,9.033C423.671,329.83,417.65,327.23,412.519,322.029z M416.316,301.962
			c0,5.235,1.676,9.495,5.029,12.78c3.352,3.284,7.288,4.927,11.804,4.927c4.516,0,8.348-1.659,11.497-4.978
			c3.146-3.318,4.721-7.578,4.721-12.779c0-5.2-1.575-9.546-4.721-13.036c-3.149-3.49-7.015-5.235-11.6-5.235
			c-4.585,0-8.519,1.745-11.803,5.235C417.958,292.365,416.316,296.727,416.316,301.962z"/>
		<path fill="#44B29D" d="M500.637,266.704c-3.525,0-6.415,0.718-8.673,2.156c-2.258,1.437-3.387,3.61-3.387,6.518
			c0,2.91,1.129,5.132,3.387,6.672s7.065,3.199,14.422,4.978c7.355,1.781,12.897,4.278,16.628,7.493
			c3.728,3.217,5.594,7.955,5.594,14.216c0,6.261-2.361,11.342-7.082,15.243c-4.722,3.9-10.916,5.851-18.579,5.851
			c-11.224,0-21.179-3.865-29.869-11.599l7.596-9.135c7.252,6.296,14.781,9.443,22.581,9.443c3.901,0,6.996-0.837,9.29-2.514
			c2.292-1.676,3.437-3.901,3.437-6.672c0-2.771-1.078-4.927-3.233-6.467c-2.155-1.539-5.868-2.941-11.136-4.208
			c-5.271-1.266-9.273-2.429-12.01-3.49c-2.737-1.06-5.166-2.445-7.287-4.157c-4.245-3.215-6.364-8.142-6.364-14.78
			c0-6.637,2.411-11.753,7.235-15.345c4.825-3.593,10.794-5.388,17.912-5.388c4.583,0,9.136,0.753,13.652,2.258
			c4.516,1.506,8.416,3.627,11.701,6.364l-6.467,9.135c-2.122-1.915-4.997-3.49-8.622-4.722
			C507.736,267.32,504.161,266.704,500.637,266.704z"/>
		<path fill="#44B29D" d="M552.934,283.64v27.714c0,2.601,0.684,4.67,2.052,6.21c1.369,1.539,3.286,2.309,5.748,2.309
			c2.464,0,4.824-1.196,7.082-3.593l4.722,8.109c-4.039,3.628-8.503,5.441-13.396,5.441c-4.892,0-9.067-1.694-12.521-5.081
			c-3.457-3.387-5.185-7.955-5.185-13.703v-53.785h11.497v17.141h14.37v9.238H552.934z"/>
		<path fill="#44B29D" d="M585.881,322.029c-5.133-5.2-7.699-12.043-7.699-20.529c0-8.484,2.634-15.258,7.903-20.323
			c5.269-5.063,11.497-7.596,18.682-7.596c7.185,0,13.103,3.422,17.757,10.264v-9.443h11.495v54.607h-11.495v-8.93
			c-2.191,3.148-4.978,5.56-8.366,7.237c-3.387,1.678-6.793,2.515-10.213,2.515C597.034,329.83,591.013,327.23,585.881,322.029z
			 M589.679,301.962c0,5.235,1.676,9.495,5.029,12.78c3.352,3.284,7.288,4.927,11.804,4.927c4.516,0,8.348-1.659,11.497-4.978
			c3.146-3.318,4.721-7.578,4.721-12.779c0-5.2-1.575-9.546-4.721-13.036c-3.149-3.49-7.015-5.235-11.6-5.235
			c-4.584,0-8.519,1.745-11.803,5.235C591.321,292.365,589.679,296.727,589.679,301.962z"/>
		<path fill="#44B29D" d="M679.286,285.18c-5.68,0-9.957,1.847-12.83,5.543c-2.873,3.695-4.31,8.657-4.31,14.883v23.403h-11.497
			v-54.607h11.497v10.983c1.847-3.421,4.362-6.226,7.544-8.417c3.181-2.189,6.55-3.318,10.11-3.387l0.102,11.598
			C679.697,285.18,679.492,285.18,679.286,285.18z"/>
	</g>
</g>
<g id="Layer_4">
</g>
</svg>
