<?xml version="1.0" encoding="utf-8"?>
<!-- Generator: Adobe Illustrator 17.0.2, SVG Export Plug-In . SVG Version: 6.00 Build 0)  -->
<!DOCTYPE svg PUBLIC "-//W3C//DTD SVG 1.1//EN" "http://www.w3.org/Graphics/SVG/1.1/DTD/svg11.dtd">
<svg version="1.1" id="Layer_1" xmlns="http://www.w3.org/2000/svg" xmlns:xlink="http://www.w3.org/1999/xlink" x="0px" y="0px"
	 width="320px" height="500px" viewBox="0 0 320 500" enable-background="new 0 0 320 500" xml:space="preserve">
<g>
	<circle fill="#E27A3E" cx="137.645" cy="128.459" r="80.204"/>
	<circle fill="#EFC94C" cx="140.804" cy="131.618" r="77.286"/>
</g>
<g>
	<circle fill="#E27A3E" cx="124.265" cy="84.948" r="80.204"/>
	<circle fill="#EFC94C" cx="127.424" cy="88.107" r="77.286"/>
</g>
<g>
	<circle fill="#E27A3E" cx="183.031" cy="84.948" r="80.204"/>
	<circle fill="#EFC94C" cx="186.19" cy="88.107" r="77.286"/>
</g>
<g>
	<g>
		<path fill="#44B29D" d="M50.529,241.82c-2.89,0-5.255,0.59-7.105,1.767c-1.85,1.177-2.777,2.957-2.777,5.338
			c0,2.386,0.927,4.203,2.777,5.466c1.85,1.26,5.787,2.62,11.813,4.078c6.025,1.459,10.566,3.503,13.623,6.139
			c3.054,2.636,4.583,6.515,4.583,11.644s-1.935,9.29-5.803,12.485c-3.868,3.195-8.943,4.793-15.218,4.793
			c-9.197,0-17.35-3.167-24.469-9.501l6.22-7.484c5.944,5.158,12.11,7.738,18.499,7.738c3.195,0,5.732-0.689,7.609-2.06
			c1.88-1.373,2.819-3.195,2.819-5.466c0-2.271-0.883-4.035-2.65-5.299c-1.764-1.26-4.805-2.409-9.123-3.445
			c-4.317-1.04-7.593-1.989-9.838-2.862c-2.24-0.869-4.231-2.002-5.967-3.403c-3.48-2.636-5.216-6.671-5.216-12.109
			c0-5.434,1.979-9.627,5.928-12.571c3.952-2.945,8.844-4.414,14.675-4.414c3.753,0,7.484,0.619,11.183,1.85
			c3.699,1.235,6.894,2.971,9.584,5.212L66.38,247.2c-1.736-1.568-4.09-2.858-7.063-3.868
			C56.343,242.324,53.414,241.82,50.529,241.82z"/>
		<path fill="#44B29D" d="M104.721,247.453c6.108,0,11.183,1.697,15.218,5.087c4.035,3.39,6.081,7.805,6.139,13.244l0.083,0.167
			l-32.623,13.706c2.913,3.586,6.878,5.38,11.898,5.38c5.013,0,9.149-1.963,12.399-5.886l5.553,6.139
			c-5.325,5.494-11.606,8.238-18.836,8.238c-6.335,0-11.773-2.104-16.314-6.307c-4.541-4.203-6.811-9.752-6.811-16.649
			c0-4.763,1.177-8.953,3.531-12.568c2.354-3.618,5.271-6.28,8.747-7.988C97.177,248.31,100.853,247.453,104.721,247.453z
			 M90.511,270.744c0,0.731,0.028,1.263,0.083,1.6l24.806-10.679c-1.908-3.699-5.299-5.549-10.175-5.549
			c-3.699,0-7.077,1.29-10.131,3.868C92.035,262.564,90.511,266.148,90.511,270.744z"/>
		<path fill="#44B29D" d="M159.288,256.957c-4.654,0-8.154,1.514-10.511,4.539c-2.354,3.026-3.531,7.093-3.531,12.192v19.172h-9.415
			v-44.732h9.415v8.998c1.514-2.804,3.574-5.103,6.182-6.897c2.605-1.79,5.364-2.717,8.282-2.772l0.083,9.501
			C159.622,256.957,159.455,256.957,159.288,256.957z"/>
		<path fill="#44B29D" d="M181.066,292.859l-17.995-44.732h9.752l13.623,33.8l13.623-33.8h9.752l-17.995,44.732H181.066z"/>
		<path fill="#44B29D" d="M237.656,247.453c6.108,0,11.183,1.697,15.218,5.087c4.035,3.39,6.081,7.805,6.139,13.244l0.083,0.167
			l-32.623,13.706c2.913,3.586,6.878,5.38,11.898,5.38c5.013,0,9.149-1.963,12.398-5.886l5.553,6.139
			c-5.325,5.494-11.606,8.238-18.836,8.238c-6.335,0-11.773-2.104-16.314-6.307c-4.541-4.203-6.811-9.752-6.811-16.649
			c0-4.763,1.177-8.953,3.531-12.568c2.354-3.618,5.271-6.28,8.747-7.988C230.112,248.31,233.788,247.453,237.656,247.453z
			 M223.446,270.744c0,0.731,0.028,1.263,0.083,1.6l24.806-10.679c-1.908-3.699-5.299-5.549-10.175-5.549
			c-3.699,0-7.077,1.29-10.131,3.868C224.97,262.564,223.446,266.148,223.446,270.744z"/>
		<path fill="#44B29D" d="M292.221,256.957c-4.654,0-8.154,1.514-10.511,4.539c-2.354,3.026-3.531,7.093-3.531,12.192v19.172h-9.415
			v-44.732h9.415v8.998c1.514-2.804,3.574-5.103,6.182-6.897c2.605-1.79,5.364-2.717,8.282-2.772l0.083,9.501
			C292.557,256.957,292.39,256.957,292.221,256.957z"/>
	</g>
	<g>
		<path fill="#44B29D" d="M37.255,371.377h-9.924v-50.198c-2.804,0.449-5.581,1.219-8.324,2.31
			c-2.745,1.094-4.793,2.092-6.139,2.987l-2.018,1.26L5.3,319.832c2.745-2.467,6.627-4.523,11.644-6.178
			c5.017-1.655,10.104-2.483,15.262-2.483s10.245,0.828,15.262,2.483c5.017,1.655,8.899,3.711,11.648,6.178l-5.553,7.903
			c-1.568-1.232-3.993-2.522-7.272-3.868c-3.276-1.345-6.291-2.24-9.036-2.691L37.255,371.377L37.255,371.377z"/>
		<path fill="#44B29D" d="M104.858,365.362c-4.485,4.458-10.088,6.686-16.818,6.686c-6.726,0-12.333-2.229-16.814-6.686
			c-4.488-4.453-6.73-9.905-6.73-16.353c0-6.444,2.24-11.898,6.73-16.356c4.481-4.453,10.088-6.682,16.814-6.682
			c6.73,0,12.333,2.229,16.818,6.682c4.485,4.458,6.726,9.912,6.726,16.356C111.584,355.457,109.343,360.909,104.858,365.362z
			 M77.91,359.563c2.663,2.717,6.041,4.078,10.131,4.078c4.093,0,7.468-1.36,10.136-4.078c2.659-2.717,3.993-6.236,3.993-10.554
			s-1.334-7.833-3.993-10.554c-2.666-2.717-6.041-4.078-10.136-4.078c-4.09,0-7.468,1.36-10.131,4.078
			c-2.663,2.721-3.993,6.236-3.993,10.554S75.247,356.846,77.91,359.563z"/>
		<path fill="#44B29D" d="M131.678,371.377h-9.415v-62.391h9.415v36.662l18.163-19.003h12.11l-16.985,17.741l18.245,26.993h-11.433
			l-13.287-19.59l-6.811,6.894v12.695H131.678z"/>
		<path fill="#44B29D" d="M191.466,325.971c6.108,0,11.183,1.697,15.218,5.087c4.035,3.39,6.081,7.805,6.139,13.244l0.083,0.167
			l-32.623,13.706c2.913,3.586,6.878,5.38,11.898,5.38c5.013,0,9.149-1.963,12.398-5.886l5.553,6.139
			c-5.325,5.494-11.606,8.238-18.836,8.238c-6.335,0-11.773-2.104-16.314-6.307c-4.541-4.203-6.811-9.752-6.811-16.649
			c0-4.763,1.177-8.953,3.531-12.568c2.354-3.618,5.271-6.28,8.747-7.988C183.922,326.828,187.598,325.971,191.466,325.971z
			 M177.256,349.26c0,0.731,0.028,1.263,0.083,1.6l24.806-10.679c-1.908-3.699-5.299-5.549-10.175-5.549
			c-3.699,0-7.077,1.29-10.131,3.868C178.781,341.08,177.256,344.666,177.256,349.26z"/>
		<path fill="#44B29D" d="M231.99,347.161v24.215h-9.415v-44.732h9.415v8.157c1.514-2.745,3.602-4.908,6.264-6.476
			c2.663-1.568,5.537-2.354,8.619-2.354c5.049,0,9.126,1.54,12.235,4.626c3.112,3.082,4.668,7.538,4.668,13.369v27.41h-9.42v-24.552
			c0-8.243-3.417-12.36-10.256-12.36c-3.253,0-6.085,1.078-8.494,3.237C233.194,339.861,231.99,343.011,231.99,347.161z"/>
		<path fill="#44B29D" d="M308.764,358.007c0,4.263-1.545,7.664-4.626,10.217c-3.082,2.55-7.035,3.824-11.856,3.824
			c-3.253,0-6.627-0.587-10.131-1.767c-3.503-1.177-6.601-2.826-9.29-4.959l4.539-7.316c5.212,3.923,10.256,5.886,15.137,5.886
			c2.127,0,3.808-0.488,5.043-1.47c1.232-0.982,1.85-2.229,1.85-3.743c0-2.24-2.971-4.257-8.915-6.053
			c-0.446-0.167-0.782-0.282-1.01-0.337c-9.302-2.525-13.954-6.73-13.954-12.613c0-4.148,1.611-7.468,4.834-9.963
			c3.221-2.495,7.413-3.743,12.571-3.743c5.158,0,10.034,1.514,14.631,4.539l-3.531,6.98c-3.644-2.409-7.598-3.618-11.856-3.618
			c-2.245,0-4.067,0.407-5.466,1.219c-1.404,0.814-2.104,2.034-2.104,3.656c0,1.459,0.728,2.525,2.185,3.198
			c1.008,0.504,2.425,0.982,4.247,1.427c1.822,0.449,3.433,0.899,4.837,1.345c1.399,0.449,2.761,0.953,4.078,1.514
			c1.315,0.564,2.733,1.345,4.247,2.354C307.25,350.61,308.764,353.75,308.764,358.007z"/>
	</g>
</g>
<g>
	<path fill="#344D5C" d="M52.04,238.799c-2.89,0-5.255,0.59-7.105,1.767c-1.85,1.177-2.777,2.957-2.777,5.338
		c0,2.386,0.927,4.203,2.777,5.466c1.85,1.26,5.787,2.62,11.813,4.078c6.027,1.457,10.566,3.503,13.623,6.139
		c3.054,2.636,4.583,6.515,4.583,11.644c0,5.13-1.935,9.29-5.803,12.485s-8.943,4.793-15.218,4.793
		c-9.197,0-17.35-3.167-24.469-9.502l6.22-7.484c5.944,5.158,12.11,7.738,18.499,7.738c3.195,0,5.732-0.689,7.609-2.06
		c1.88-1.373,2.819-3.195,2.819-5.466c0-2.271-0.883-4.035-2.65-5.299c-1.764-1.26-4.805-2.409-9.123-3.445
		c-4.317-1.04-7.593-1.989-9.838-2.862c-2.24-0.869-4.231-2.002-5.967-3.403c-3.48-2.636-5.216-6.671-5.216-12.109
		c0-5.434,1.979-9.627,5.928-12.571c3.952-2.945,8.844-4.414,14.675-4.414c3.753,0,7.484,0.619,11.183,1.85
		c3.699,1.235,6.894,2.971,9.584,5.212l-5.299,7.484c-1.736-1.568-4.09-2.858-7.063-3.868
		C57.855,239.302,54.924,238.799,52.04,238.799z"/>
	<path fill="#344D5C" d="M106.231,244.435c6.108,0,11.183,1.697,15.218,5.087c4.035,3.39,6.081,7.805,6.139,13.244l0.083,0.167
		L95.048,276.64c2.913,3.586,6.878,5.38,11.898,5.38c5.013,0,9.149-1.963,12.399-5.886l5.553,6.139
		c-5.325,5.494-11.606,8.238-18.836,8.238c-6.335,0-11.773-2.104-16.314-6.307c-4.541-4.203-6.811-9.752-6.811-16.649
		c0-4.763,1.177-8.953,3.531-12.568c2.354-3.618,5.271-6.28,8.747-7.988C98.687,245.291,102.363,244.435,106.231,244.435z
		 M92.021,267.723c0,0.731,0.028,1.263,0.083,1.6l24.806-10.679c-1.908-3.699-5.299-5.549-10.175-5.549
		c-3.699,0-7.077,1.29-10.131,3.868C93.545,259.543,92.021,263.129,92.021,267.723z"/>
	<path fill="#344D5C" d="M160.798,253.936c-4.654,0-8.153,1.514-10.511,4.539c-2.354,3.026-3.531,7.093-3.531,12.192v19.172h-9.415
		v-44.734h9.415v8.998c1.514-2.804,3.574-5.103,6.182-6.897c2.605-1.79,5.364-2.717,8.282-2.772l0.083,9.502
		C161.133,253.936,160.965,253.936,160.798,253.936z"/>
	<path fill="#344D5C" d="M182.576,289.838l-17.995-44.732h9.752l13.623,33.8l13.623-33.8h9.752l-17.995,44.732H182.576z"/>
	<path fill="#344D5C" d="M239.164,244.435c6.108,0,11.183,1.697,15.218,5.087c4.035,3.39,6.081,7.805,6.139,13.244l0.083,0.167
		l-32.623,13.706c2.913,3.586,6.878,5.38,11.898,5.38c5.013,0,9.149-1.963,12.399-5.886l5.553,6.139
		c-5.325,5.494-11.606,8.238-18.836,8.238c-6.335,0-11.773-2.104-16.314-6.307s-6.811-9.752-6.811-16.649
		c0-4.763,1.177-8.953,3.531-12.568c2.354-3.618,5.271-6.28,8.747-7.988C231.622,245.291,235.298,244.435,239.164,244.435z
		 M224.956,267.723c0,0.731,0.028,1.263,0.083,1.6l24.806-10.679c-1.908-3.699-5.299-5.549-10.175-5.549
		c-3.699,0-7.077,1.29-10.131,3.868C226.48,259.543,224.956,263.129,224.956,267.723z"/>
	<path fill="#344D5C" d="M293.731,253.936c-4.654,0-8.154,1.514-10.511,4.539c-2.354,3.026-3.531,7.093-3.531,12.192v19.172h-9.415
		v-44.734h9.415v8.998c1.514-2.804,3.574-5.103,6.182-6.897c2.605-1.79,5.364-2.717,8.282-2.772l0.083,9.502
		C294.068,253.936,293.9,253.936,293.731,253.936z"/>
</g>
<g>
	<path fill="#344D5C" d="M38.765,368.356h-9.924v-50.198c-2.804,0.449-5.581,1.219-8.324,2.31c-2.745,1.094-4.793,2.092-6.139,2.987
		l-2.018,1.26l-5.549-7.903c2.745-2.467,6.627-4.523,11.644-6.178s10.104-2.483,15.262-2.483s10.245,0.828,15.262,2.483
		s8.899,3.711,11.648,6.178l-5.553,7.903c-1.568-1.232-3.993-2.522-7.272-3.868c-3.276-1.345-6.291-2.24-9.036-2.691L38.765,368.356
		L38.765,368.356z"/>
	<path fill="#344D5C" d="M106.368,362.342c-4.485,4.458-10.088,6.686-16.818,6.686c-6.726,0-12.333-2.229-16.814-6.686
		c-4.488-4.453-6.73-9.905-6.73-16.353c0-6.444,2.24-11.898,6.73-16.356c4.481-4.453,10.088-6.682,16.814-6.682
		c6.73,0,12.333,2.229,16.818,6.682c4.485,4.458,6.726,9.912,6.726,16.356C113.095,352.439,110.853,357.889,106.368,362.342z
		 M79.42,356.545c2.663,2.717,6.041,4.078,10.131,4.078c4.093,0,7.468-1.36,10.136-4.078c2.659-2.717,3.993-6.236,3.993-10.553
		s-1.334-7.833-3.993-10.554c-2.666-2.717-6.041-4.078-10.136-4.078c-4.09,0-7.468,1.36-10.131,4.078
		c-2.663,2.721-3.993,6.236-3.993,10.554S76.757,353.826,79.42,356.545z"/>
	<path fill="#344D5C" d="M133.188,368.356h-9.415v-62.391h9.415v36.662l18.163-19.003h12.11l-16.985,17.741l18.245,26.993h-11.433
		l-13.287-19.59l-6.811,6.894v12.695H133.188z"/>
	<path fill="#344D5C" d="M192.975,322.951c6.108,0,11.183,1.697,15.218,5.087c4.035,3.39,6.081,7.805,6.139,13.244l0.083,0.167
		l-32.623,13.706c2.913,3.586,6.878,5.38,11.898,5.38c5.013,0,9.149-1.963,12.399-5.886l5.553,6.139
		c-5.325,5.494-11.606,8.238-18.836,8.238c-6.335,0-11.773-2.104-16.314-6.307s-6.811-9.752-6.811-16.649
		c0-4.763,1.177-8.953,3.531-12.568c2.354-3.618,5.271-6.28,8.747-7.988C185.433,323.807,189.108,322.951,192.975,322.951z
		 M178.766,346.241c0,0.731,0.028,1.263,0.083,1.6l24.806-10.679c-1.908-3.699-5.299-5.549-10.175-5.549
		c-3.699,0-7.077,1.29-10.131,3.868C180.291,338.06,178.766,341.646,178.766,346.241z"/>
	<path fill="#344D5C" d="M233.501,344.141v24.215h-9.415v-44.732h9.415v8.157c1.514-2.745,3.602-4.908,6.264-6.476
		c2.663-1.568,5.537-2.354,8.619-2.354c5.049,0,9.126,1.54,12.235,4.626c3.112,3.082,4.668,7.538,4.668,13.369v27.41h-9.42v-24.552
		c0-8.243-3.417-12.36-10.256-12.36c-3.253,0-6.085,1.078-8.494,3.237C234.704,336.84,233.501,339.993,233.501,344.141z"/>
	<path fill="#344D5C" d="M310.272,354.987c0,4.263-1.545,7.664-4.626,10.217c-3.082,2.55-7.035,3.824-11.856,3.824
		c-3.253,0-6.627-0.587-10.131-1.767c-3.503-1.177-6.601-2.827-9.29-4.959l4.539-7.316c5.212,3.923,10.256,5.886,15.137,5.886
		c2.127,0,3.808-0.488,5.043-1.47c1.232-0.982,1.85-2.229,1.85-3.743c0-2.24-2.971-4.257-8.915-6.053
		c-0.446-0.167-0.782-0.282-1.008-0.337c-9.302-2.525-13.956-6.73-13.956-12.613c0-4.148,1.611-7.468,4.834-9.963
		c3.221-2.495,7.413-3.743,12.571-3.743c5.158,0,10.034,1.514,14.631,4.539l-3.531,6.98c-3.644-2.409-7.598-3.618-11.856-3.618
		c-2.245,0-4.067,0.407-5.466,1.219c-1.404,0.814-2.104,2.034-2.104,3.656c0,1.459,0.728,2.525,2.185,3.198
		c1.01,0.504,2.425,0.982,4.247,1.427c1.822,0.449,3.433,0.899,4.837,1.345c1.399,0.449,2.761,0.953,4.078,1.514
		c1.315,0.564,2.733,1.345,4.247,2.354C308.76,347.589,310.272,350.729,310.272,354.987z"/>
</g>
<g>
	<g>
		<circle fill="#E27A3E" cx="171.147" cy="131.497" r="80.204"/>
		<circle fill="#EFC94C" cx="174.306" cy="134.658" r="77.286"/>
	</g>
	<g>
		<g>
			<g>
				<path fill="#344D5C" d="M140.995,105.13v7.45h-20.541v11.976c2.042-1.114,4.363-1.671,6.962-1.671
					c4.548,0,8.471,1.369,11.768,4.108c3.295,2.738,4.943,6.453,4.943,11.14c0,4.689-1.718,8.576-5.153,11.664
					c-3.436,3.087-7.66,4.629-12.672,4.629c-6.546,0-11.768-2.182-15.667-6.545l4.386-5.988c0.372,0.372,0.871,0.812,1.498,1.323
					c0.627,0.511,1.914,1.196,3.864,2.055c1.949,0.86,4.085,1.288,6.405,1.288c2.321,0,4.432-0.696,6.337-2.088
					c1.903-1.392,2.855-3.422,2.855-6.094c0-2.67-1.01-4.735-3.029-6.197s-4.573-2.192-7.66-2.192s-6.023,0.767-8.807,2.298
					l-3.482-3.76V105.13H140.995z"/>
				<path fill="#344D5C" d="M156.974,141.546c-3.598-3.944-5.396-9.214-5.396-15.805c0-6.59,1.799-11.859,5.396-15.806
					c3.598-3.944,8.412-5.919,14.45-5.919c6.034,0,10.85,1.975,14.448,5.919c3.597,3.947,5.396,9.216,5.396,15.806
					c0,6.59-1.799,11.861-5.396,15.805c-3.598,3.947-8.414,5.919-14.448,5.919C165.386,147.465,160.57,145.492,156.974,141.546z
					 M162.754,115.052c-2.159,2.67-3.237,6.231-3.237,10.689c0,4.458,1.078,8.02,3.237,10.689c2.159,2.67,5.036,4.004,8.633,4.004
					s6.464-1.334,8.599-4.004c2.134-2.67,3.204-6.231,3.204-10.689c0-4.458-1.068-8.018-3.204-10.689
					c-2.136-2.67-5.003-4.004-8.599-4.004C167.79,111.049,164.912,112.383,162.754,115.052z"/>
				<path fill="#344D5C" d="M215.497,155.404v-8.078c-4.689-0.509-8.647-2.472-11.872-5.884c-3.226-3.413-4.839-7.718-4.839-12.917
					c0-5.198,1.602-9.505,4.805-12.917c3.204-3.412,7.172-5.442,11.907-6.094v-8.286h4.456v8.146
					c5.246,0.418,9.563,2.323,12.952,5.711l-4.596,5.639c-2.832-2.414-5.618-3.76-8.356-4.039v23.606
					c3.064-0.324,5.965-1.882,8.703-4.666l4.596,5.013c-3.854,3.947-8.286,6.175-13.299,6.686v8.078H215.497z M209.127,120.901
					c-1.695,2.019-2.541,4.455-2.541,7.311c0,2.855,0.823,5.35,2.472,7.486c1.648,2.136,3.794,3.551,6.441,4.247v-22.978
					C212.943,117.57,210.82,118.881,209.127,120.901z"/>
			</g>
			<g>
				<path fill="#DF5A49" d="M139.728,107.664v7.45h-20.541v11.976c2.042-1.114,4.363-1.671,6.962-1.671
					c4.548,0,8.471,1.369,11.768,4.108c3.295,2.738,4.943,6.453,4.943,11.14c0,4.689-1.718,8.576-5.153,11.664
					c-3.436,3.087-7.66,4.629-12.673,4.629c-6.545,0-11.768-2.182-15.667-6.545l4.386-5.988c0.372,0.372,0.871,0.812,1.498,1.323
					c0.627,0.511,1.915,1.196,3.864,2.055c1.949,0.86,4.085,1.288,6.405,1.288c2.321,0,4.432-0.696,6.337-2.088
					c1.903-1.392,2.855-3.422,2.855-6.094c0-2.67-1.01-4.735-3.029-6.197c-2.019-1.463-4.573-2.192-7.66-2.192
					s-6.023,0.767-8.807,2.298l-3.482-3.76v-23.396H139.728z"/>
				<path fill="#DF5A49" d="M155.707,144.08c-3.598-3.944-5.396-9.214-5.396-15.805c0-6.59,1.799-11.859,5.396-15.807
					c3.598-3.944,8.412-5.919,14.45-5.919c6.034,0,10.85,1.975,14.448,5.919c3.597,3.947,5.396,9.216,5.396,15.807
					c0,6.59-1.799,11.861-5.396,15.805c-3.598,3.947-8.414,5.919-14.448,5.919C164.119,149.999,159.303,148.027,155.707,144.08z
					 M161.487,117.586c-2.159,2.67-3.237,6.231-3.237,10.689c0,4.458,1.078,8.02,3.237,10.689c2.159,2.67,5.036,4.004,8.635,4.004
					c3.597,0,6.464-1.334,8.599-4.004c2.134-2.67,3.204-6.231,3.204-10.689c0-4.458-1.068-8.018-3.204-10.689
					c-2.136-2.67-5.003-4.004-8.599-4.004C166.523,113.583,163.644,114.917,161.487,117.586z"/>
				<path fill="#DF5A49" d="M214.23,157.938v-8.078c-4.689-0.509-8.647-2.472-11.872-5.884c-3.226-3.413-4.839-7.718-4.839-12.917
					c0-5.198,1.602-9.505,4.805-12.917c3.204-3.412,7.172-5.442,11.907-6.094v-8.286h4.456v8.146
					c5.246,0.418,9.561,2.323,12.952,5.711l-4.596,5.639c-2.832-2.414-5.618-3.76-8.356-4.039v23.606
					c3.064-0.324,5.965-1.882,8.703-4.666l4.596,5.013c-3.854,3.947-8.286,6.175-13.299,6.686v8.078L214.23,157.938L214.23,157.938z
					 M207.86,123.435c-1.695,2.019-2.541,4.455-2.541,7.311c0,2.855,0.823,5.35,2.472,7.486c1.648,2.136,3.794,3.551,6.441,4.247
					V119.5C211.676,120.104,209.553,121.415,207.86,123.435z"/>
			</g>
		</g>
		<g>
			<path fill="#DF5A49" d="M183.669,163.735c-2.104,0-3.154,0.626-3.154,1.878c0,1.621,1.341,2.432,4.021,2.432h2.287v2.553
				c-1.011,0-1.819,0-2.419,0c-0.603,0-1.131,0.016-1.589,0.048c-0.458,0.032-0.798,0.076-1.024,0.132
				c-0.226,0.056-0.502,0.148-0.832,0.277c-0.33,0.129-0.574,0.282-0.735,0.458c-0.418,0.465-0.626,1.02-0.626,1.662
				c0,1.621,1.332,2.432,3.998,2.432c0.835,0,1.649-0.1,2.444-0.301c0.795-0.201,1.417-0.437,1.866-0.71l0.77,2.553
				c-1.493,0.804-3.288,1.204-5.382,1.204c-2.095,0-3.725-0.442-4.888-1.325c-1.165-0.883-1.746-2.143-1.746-3.782
				c0-1.863,0.923-3.235,2.77-4.118c-1.3-0.915-1.951-2.174-1.951-3.782c0-1.3,0.534-2.36,1.602-3.179
				c1.068-0.819,2.501-1.228,4.298-1.228c0.738,0,1.53,0.081,2.372,0.241c0.842,0.16,1.53,0.37,2.058,0.626l-0.578,2.698
				C186.062,163.991,184.874,163.735,183.669,163.735z"/>
			<path fill="#DF5A49" d="M192.386,176.546c-1.204-1.219-1.806-2.825-1.806-4.816c0-1.989,0.619-3.579,1.854-4.768
				c1.235-1.188,2.698-1.782,4.382-1.782c1.686,0,3.075,0.804,4.166,2.409v-2.215h2.698v12.811h-2.698v-2.095
				c-0.515,0.738-1.168,1.304-1.963,1.697s-1.593,0.59-2.396,0.59C195.003,178.377,193.59,177.766,192.386,176.546z
				 M193.278,171.838c0,1.228,0.393,2.227,1.181,2.999c0.786,0.77,1.709,1.156,2.77,1.156c1.059,0,1.958-0.389,2.698-1.168
				c0.738-0.779,1.108-1.778,1.108-2.997c0-1.219-0.37-2.24-1.108-3.059c-0.738-0.819-1.646-1.228-2.721-1.228
				c-1.077,0-1.998,0.409-2.77,1.228C193.664,169.587,193.278,170.609,193.278,171.838z"/>
			<path fill="#DF5A49" d="M213.266,178.377c-1.782,0-3.315-0.606-4.599-1.819c-1.285-1.212-1.926-2.797-1.926-4.756
				c0-1.96,0.67-3.552,2.011-4.781c1.341-1.228,2.974-1.841,4.901-1.841c1.926,0,3.556,0.666,4.888,1.998l-1.589,1.951
				c-1.108-0.964-2.224-1.445-3.348-1.445c-1.124,0-2.099,0.374-2.925,1.119c-0.826,0.747-1.241,1.709-1.241,2.89
				c0,1.181,0.409,2.18,1.228,2.997c0.819,0.819,1.826,1.228,3.022,1.228s2.324-0.546,3.383-1.637l1.589,1.734
				C217.102,177.589,215.305,178.377,213.266,178.377z"/>
			<path fill="#DF5A49" d="M224.151,171.247v6.936h-2.698v-17.845h2.698v7.369c0.386-0.786,0.967-1.404,1.746-1.854
				c0.779-0.449,1.618-0.675,2.516-0.675c1.445,0,2.613,0.442,3.505,1.325c0.892,0.883,1.336,2.16,1.336,3.829v7.85h-2.698v-7.031
				c0-2.36-0.98-3.54-2.938-3.54c-0.93,0-1.743,0.31-2.432,0.927C224.494,169.157,224.151,170.061,224.151,171.247z"/>
		</g>
	</g>
</g>
<g>
	<path fill="#344D5C" d="M25.036,393.312c-2.796,0-4.196,0.833-4.196,2.499c0,2.157,1.782,3.234,5.348,3.234h3.043v3.394
		c-1.345,0-2.418,0-3.218,0s-1.505,0.021-2.113,0.063c-0.608,0.042-1.063,0.102-1.36,0.176c-0.3,0.076-0.668,0.197-1.105,0.368
		s-0.763,0.374-0.976,0.608c-0.555,0.62-0.834,1.355-0.834,2.21c0,2.157,1.771,3.235,5.316,3.235c1.11,0,2.194-0.134,3.251-0.4
		s1.884-0.582,2.483-0.944l1.024,3.394c-1.986,1.068-4.37,1.602-7.156,1.602s-4.953-0.587-6.501-1.76
		c-1.547-1.174-2.323-2.851-2.323-5.027c0-2.476,1.228-4.301,3.683-5.477c-1.729-1.218-2.594-2.893-2.594-5.027
		c0-1.729,0.71-3.138,2.129-4.227c1.419-1.089,3.325-1.634,5.716-1.634c0.982,0,2.034,0.108,3.154,0.321
		c1.121,0.213,2.034,0.492,2.738,0.833l-0.768,3.586C28.217,393.654,26.638,393.312,25.036,393.312z"/>
	<path fill="#344D5C" d="M36.63,410.348c-1.602-1.623-2.402-3.757-2.402-6.405c0-2.647,0.821-4.76,2.465-6.34
		c1.644-1.579,3.586-2.37,5.829-2.37c2.241,0,4.088,1.068,5.54,3.202v-2.946h3.586v17.036h-3.586v-2.786
		c-0.684,0.982-1.552,1.734-2.61,2.257c-1.057,0.523-2.12,0.784-3.186,0.784C40.108,412.782,38.23,411.971,36.63,410.348z
		 M37.814,404.087c0,1.634,0.523,2.962,1.57,3.988c1.045,1.026,2.273,1.537,3.683,1.537c1.41,0,2.605-0.518,3.586-1.552
		c0.982-1.034,1.473-2.365,1.473-3.986c0-1.623-0.492-2.978-1.473-4.067s-2.189-1.634-3.618-1.634c-1.431,0-2.657,0.545-3.683,1.634
		C38.327,401.093,37.814,402.454,37.814,404.087z"/>
	<path fill="#344D5C" d="M64.392,412.782c-2.37,0-4.409-0.805-6.116-2.418c-1.708-1.611-2.562-3.72-2.562-6.324
		s0.892-4.724,2.673-6.356c1.783-1.634,3.954-2.449,6.516-2.449c2.562,0,4.728,0.886,6.501,2.657l-2.113,2.594
		c-1.473-1.281-2.957-1.921-4.451-1.921c-1.494,0-2.791,0.497-3.891,1.489c-1.1,0.992-1.649,2.273-1.649,3.843
		c0,1.568,0.545,2.899,1.634,3.986c1.089,1.089,2.428,1.634,4.019,1.634c1.589,0,3.091-0.726,4.499-2.178l2.113,2.305
		C69.495,411.737,67.104,412.782,64.392,412.782z"/>
	<path fill="#344D5C" d="M78.867,403.303v9.223h-3.586v-23.729h3.586v9.799c0.513-1.045,1.286-1.868,2.323-2.465
		c1.036-0.597,2.15-0.897,3.346-0.897c1.921,0,3.475,0.587,4.659,1.76c1.184,1.175,1.778,2.872,1.778,5.091v10.439h-3.586v-9.35
		c0-3.138-1.302-4.708-3.907-4.708c-1.239,0-2.317,0.412-3.234,1.233C79.326,400.523,78.867,401.724,78.867,403.303z"/>
	<path fill="#344D5C" d="M118.993,410.236c-1.708,1.697-3.843,2.546-6.404,2.546c-2.562,0-4.698-0.848-6.405-2.546
		c-1.708-1.697-2.562-3.773-2.562-6.229c0-2.455,0.853-4.53,2.562-6.229c1.708-1.699,3.843-2.546,6.405-2.546
		s4.696,0.848,6.404,2.546c1.708,1.697,2.562,3.773,2.562,6.229C121.553,406.463,120.7,408.539,118.993,410.236z M108.728,408.026
		c1.013,1.036,2.3,1.552,3.859,1.552c1.558,0,2.844-0.518,3.859-1.552c1.013-1.034,1.521-2.375,1.521-4.018
		s-0.508-2.983-1.521-4.019c-1.013-1.034-2.301-1.552-3.859-1.552c-1.56,0-2.846,0.518-3.859,1.552
		c-1.015,1.036-1.521,2.375-1.521,4.019C107.207,405.652,107.715,406.991,108.728,408.026z"/>
	<path fill="#344D5C" d="M129.206,403.303v9.223h-3.586V395.49h3.586v3.107c0.576-1.045,1.371-1.868,2.386-2.465
		c1.013-0.597,2.107-0.897,3.283-0.897c1.921,0,3.475,0.587,4.659,1.76c1.184,1.175,1.778,2.872,1.778,5.091v10.439h-3.586v-9.35
		c0-3.138-1.302-4.708-3.907-4.708c-1.239,0-2.317,0.412-3.234,1.233C129.666,400.523,129.206,401.724,129.206,403.303z"/>
	<path fill="#344D5C" d="M154.056,395.233c2.326,0,4.259,0.645,5.796,1.938c1.537,1.292,2.316,2.973,2.338,5.043l0.032,0.063
		l-12.425,5.219c1.11,1.367,2.62,2.049,4.53,2.049s3.486-0.747,4.723-2.241l2.113,2.338c-2.028,2.093-4.419,3.138-7.174,3.138
		c-2.412,0-4.483-0.8-6.213-2.402c-1.729-1.602-2.594-3.715-2.594-6.34c0-1.815,0.448-3.412,1.345-4.788
		c0.897-1.376,2.007-2.391,3.33-3.041C151.185,395.559,152.583,395.233,154.056,395.233z M148.644,404.103
		c0,0.278,0.011,0.479,0.032,0.608l9.447-4.067c-0.726-1.41-2.018-2.113-3.875-2.113c-1.41,0-2.696,0.492-3.859,1.473
		C149.226,400.986,148.644,402.353,148.644,404.103z"/>
	<path fill="#344D5C" d="M182.109,416.144c3.16,0,4.738-2.039,4.738-6.116v-0.96c-0.471,0.747-1.212,1.383-2.226,1.905
		c-1.015,0.523-2.097,0.784-3.251,0.784c-2.263,0-4.12-0.789-5.572-2.37c-1.452-1.579-2.178-3.544-2.178-5.893
		c0-2.347,0.726-4.312,2.178-5.893c1.452-1.579,3.283-2.37,5.491-2.37c2.21,0,4.062,0.768,5.556,2.305v-2.049h3.586v14.635
		c0,2.967-0.774,5.241-2.321,6.821c-1.549,1.581-3.551,2.37-6.004,2.37c-1.878,0-3.528-0.448-4.948-1.345
		c-1.42-0.897-2.451-2.178-3.091-3.843l3.138-1.345C178.063,415.023,179.695,416.144,182.109,416.144z M177.145,403.351
		c0,1.399,0.432,2.604,1.297,3.618c0.865,1.015,2.028,1.521,3.491,1.521s2.647-0.492,3.554-1.473c0.908-0.982,1.36-2.204,1.36-3.667
		c0-1.463-0.46-2.701-1.376-3.715c-0.918-1.013-2.102-1.521-3.554-1.521c-1.452,0-2.61,0.523-3.475,1.568
		C177.577,400.73,177.145,401.953,177.145,403.351z"/>
	<path fill="#344D5C" d="M203.371,395.233c2.326,0,4.259,0.645,5.796,1.938c1.537,1.292,2.316,2.973,2.338,5.043l0.032,0.063
		l-12.425,5.219c1.11,1.367,2.62,2.049,4.53,2.049s3.486-0.747,4.723-2.241l2.113,2.338c-2.028,2.093-4.419,3.138-7.174,3.138
		c-2.412,0-4.483-0.8-6.213-2.402c-1.729-1.602-2.594-3.715-2.594-6.34c0-1.815,0.448-3.412,1.345-4.788
		c0.897-1.376,2.007-2.391,3.33-3.041C200.501,395.559,201.898,395.233,203.371,395.233z M197.96,404.103
		c0,0.278,0.011,0.479,0.032,0.608l9.447-4.067c-0.726-1.41-2.018-2.113-3.875-2.113c-1.41,0-2.696,0.492-3.859,1.473
		C198.541,400.986,197.96,402.353,197.96,404.103z"/>
	<path fill="#344D5C" d="M218.647,398.371v8.647c0,0.812,0.213,1.457,0.64,1.938c0.426,0.479,1.024,0.721,1.792,0.721
		s1.505-0.372,2.21-1.121l1.473,2.53c-1.26,1.131-2.654,1.697-4.18,1.697c-1.526,0-2.828-0.529-3.907-1.586
		c-1.078-1.057-1.618-2.481-1.618-4.275v-16.779h3.586v5.348h4.483v2.883h-4.479V398.371z"/>
	<path fill="#344D5C" d="M239.749,407.434c0,1.623-0.587,2.92-1.76,3.891c-1.175,0.971-2.68,1.457-4.516,1.457
		c-1.239,0-2.525-0.224-3.859-0.673c-1.334-0.448-2.513-1.078-3.538-1.889l1.729-2.786c1.986,1.494,3.907,2.241,5.764,2.241
		c0.811,0,1.452-0.187,1.921-0.56c0.469-0.374,0.705-0.848,0.705-1.426c0-0.853-1.131-1.623-3.394-2.305
		c-0.171-0.063-0.3-0.106-0.384-0.129c-3.544-0.96-5.316-2.562-5.316-4.804c0-1.581,0.613-2.844,1.841-3.796
		c1.228-0.95,2.823-1.426,4.788-1.426s3.822,0.576,5.572,1.729l-1.345,2.657c-1.389-0.918-2.894-1.378-4.515-1.378
		c-0.855,0-1.547,0.155-2.081,0.465s-0.8,0.774-0.8,1.392c0,0.555,0.277,0.96,0.834,1.218c0.384,0.192,0.923,0.374,1.618,0.545
		c0.694,0.171,1.308,0.342,1.841,0.513c0.532,0.171,1.05,0.363,1.552,0.576c0.5,0.213,1.04,0.513,1.618,0.897
		C239.173,404.616,239.749,405.812,239.749,407.434z"/>
	<path fill="#344D5C" d="M259.669,416.049c3.16,0,4.738-2.007,4.738-6.021v-1.057c-1.431,1.473-3.257,2.21-5.477,2.21
		c-4.419,0-6.629-2.423-6.629-7.269v-8.39h3.586v6.79c0,1.986,0.305,3.389,0.913,4.212c0.608,0.823,1.655,1.233,3.138,1.233
		c1.484,0,2.567-0.379,3.251-1.137c0.684-0.758,1.089-1.905,1.216-3.441v-7.686h3.586v14.635c0,2.967-0.774,5.241-2.321,6.821
		c-1.547,1.581-3.549,2.37-6.004,2.37c-1.878,0-3.528-0.448-4.948-1.345c-1.42-0.897-2.449-2.178-3.091-3.843l3.234-1.378
		C255.697,414.949,257.298,416.049,259.669,416.049z"/>
	<path fill="#344D5C" d="M287.495,410.236c-1.708,1.697-3.843,2.546-6.404,2.546c-2.562,0-4.698-0.848-6.405-2.546
		c-1.708-1.697-2.562-3.773-2.562-6.229c0-2.455,0.853-4.53,2.562-6.229c1.708-1.699,3.843-2.546,6.405-2.546
		s4.696,0.848,6.404,2.546c1.708,1.697,2.562,3.773,2.562,6.229C290.057,406.463,289.202,408.539,287.495,410.236z M277.232,408.026
		c1.013,1.036,2.3,1.552,3.859,1.552c1.558,0,2.844-0.518,3.859-1.552c1.013-1.034,1.521-2.375,1.521-4.018
		s-0.508-2.983-1.521-4.019c-1.013-1.034-2.3-1.552-3.859-1.552c-1.56,0-2.846,0.518-3.859,1.552
		c-1.015,1.036-1.521,2.375-1.521,4.019C275.711,405.652,276.219,406.991,277.232,408.026z"/>
	<path fill="#344D5C" d="M306.036,404.713v-9.223h3.586v17.036h-3.586v-3.107c-0.576,1.047-1.373,1.868-2.386,2.465
		c-1.015,0.597-2.108,0.897-3.283,0.897c-1.921,0-3.475-0.587-4.659-1.76c-1.184-1.174-1.778-2.871-1.778-5.091v-10.439h3.586v9.352
		c0,3.138,1.302,4.707,3.907,4.707c1.237,0,2.315-0.411,3.234-1.233C305.578,407.494,306.036,406.292,306.036,404.713z"/>
	<path fill="#344D5C" d="M22.25,445.831c1.026,1.195,2.412,1.792,4.162,1.792s3.138-0.597,4.164-1.792
		c1.026-1.195,1.537-2.818,1.537-4.867v-12.393h3.778v22.385h-3.778v-2.081c-1.581,1.537-3.48,2.305-5.701,2.305
		c-2.775,0-5.049-0.87-6.821-2.61c-1.773-1.739-2.657-4.22-2.657-7.445v-12.552h3.778v12.393
		C20.714,443.012,21.227,444.634,22.25,445.831z"/>
	<path fill="#344D5C" d="M50.72,433.662c2.284,0,4.238,0.789,5.859,2.37c1.623,1.581,2.433,3.683,2.433,6.308
		s-0.805,4.761-2.418,6.405c-1.612,1.644-3.491,2.465-5.635,2.465c-2.145,0-4.072-0.939-5.78-2.818v8.774h-3.586v-23.248h3.586
		v2.978C46.589,434.74,48.434,433.662,50.72,433.662z M45.116,442.467c0,1.623,0.49,2.952,1.473,3.986
		c0.982,1.036,2.178,1.552,3.586,1.552c1.41,0,2.636-0.513,3.683-1.537c1.045-1.026,1.568-2.354,1.568-3.988
		s-0.513-2.989-1.537-4.067c-1.026-1.078-2.254-1.618-3.683-1.618c-1.431,0-2.636,0.539-3.618,1.618
		C45.606,439.494,45.116,440.846,45.116,442.467z"/>
	<path fill="#344D5C" d="M75.312,436.8v8.647c0,0.812,0.213,1.457,0.64,1.938c0.426,0.479,1.024,0.721,1.792,0.721
		c0.768,0,1.505-0.372,2.21-1.121l1.473,2.53c-1.26,1.131-2.652,1.697-4.18,1.697s-2.828-0.529-3.907-1.586
		c-1.078-1.057-1.618-2.481-1.618-4.275v-16.779h3.586v5.348h4.483v2.883h-4.479V436.8z"/>
	<path fill="#344D5C" d="M98.53,448.665c-1.708,1.697-3.843,2.546-6.404,2.546c-2.562,0-4.698-0.848-6.405-2.546
		c-1.708-1.697-2.562-3.773-2.562-6.229c0-2.455,0.853-4.531,2.562-6.229c1.708-1.699,3.843-2.546,6.405-2.546
		c2.562,0,4.696,0.848,6.404,2.546c1.708,1.697,2.562,3.773,2.562,6.229C101.091,444.89,100.238,446.968,98.53,448.665z
		 M88.266,446.455c1.013,1.036,2.3,1.552,3.859,1.552c1.558,0,2.844-0.518,3.857-1.552s1.521-2.375,1.521-4.018
		c0-1.644-0.508-2.983-1.521-4.019c-1.013-1.034-2.3-1.552-3.857-1.552c-1.56,0-2.846,0.518-3.859,1.552
		c-1.015,1.036-1.521,2.375-1.521,4.019C86.745,444.079,87.253,445.419,88.266,446.455z"/>
	<path fill="#344D5C" d="M112.266,431.773h8.134v19.181h-3.586v-15.819h-4.548L112.266,431.773L112.266,431.773z"/>
	<path fill="#344D5C" d="M135.164,439.233c0.682-0.789,1.026-1.537,1.026-2.241c0-0.705-0.273-1.276-0.816-1.713
		c-0.545-0.437-1.308-0.657-2.291-0.657c-2.028,0-3.662,0.941-4.899,2.818l-3.041-1.762c1.068-1.558,2.231-2.689,3.491-3.394
		c1.26-0.705,2.828-1.057,4.708-1.057c1.878,0,3.459,0.513,4.738,1.538c1.281,1.026,1.921,2.338,1.921,3.938
		c0,1.026-0.437,2.099-1.313,3.218c-0.876,1.121-2.465,2.641-4.772,4.564l-3.362,2.851h10.152v3.618H125.4v-3.202l6.148-5.188
		C133.275,441.133,134.48,440.023,135.164,439.233z"/>
	<path fill="#344D5C" d="M157.355,441.73v9.223h-3.586v-23.729h3.586v9.799c0.513-1.045,1.286-1.868,2.323-2.465
		c1.034-0.597,2.15-0.897,3.346-0.897c1.921,0,3.475,0.587,4.659,1.76c1.184,1.175,1.778,2.872,1.778,5.091v10.439h-3.586v-9.35
		c0-3.138-1.302-4.708-3.907-4.708c-1.239,0-2.317,0.412-3.234,1.234C157.814,438.95,157.355,440.152,157.355,441.73z"/>
	<path fill="#344D5C" d="M183.39,437.279c-1.773,0-3.107,0.576-4.004,1.729c-0.897,1.152-1.345,2.701-1.345,4.643v7.302h-3.586
		v-17.036h3.586v3.426c0.576-1.068,1.36-1.942,2.354-2.626c0.992-0.682,2.044-1.034,3.154-1.057l0.032,3.618
		C183.517,437.279,183.454,437.279,183.39,437.279z"/>
	<path fill="#344D5C" d="M199.304,445.863c0,1.623-0.587,2.92-1.76,3.891c-1.175,0.971-2.68,1.457-4.516,1.457
		c-1.239,0-2.525-0.224-3.859-0.673s-2.513-1.078-3.538-1.889l1.729-2.786c1.986,1.494,3.907,2.241,5.764,2.241
		c0.811,0,1.452-0.187,1.921-0.56c0.469-0.374,0.705-0.848,0.705-1.426c0-0.853-1.131-1.623-3.394-2.305
		c-0.171-0.063-0.3-0.106-0.384-0.129c-3.544-0.96-5.316-2.562-5.316-4.804c0-1.581,0.613-2.844,1.841-3.796
		c1.228-0.95,2.823-1.426,4.788-1.426s3.822,0.576,5.572,1.729l-1.345,2.657c-1.389-0.918-2.894-1.378-4.515-1.378
		c-0.855,0-1.547,0.155-2.081,0.465c-0.534,0.31-0.8,0.774-0.8,1.392c0,0.555,0.278,0.96,0.834,1.218
		c0.384,0.192,0.923,0.374,1.618,0.544c0.694,0.171,1.308,0.342,1.841,0.513c0.532,0.171,1.05,0.363,1.552,0.576
		c0.5,0.213,1.04,0.513,1.618,0.897C198.728,443.043,199.304,444.24,199.304,445.863z"/>
	<path fill="#344D5C" d="M226.396,448.665c-1.708,1.697-3.843,2.546-6.404,2.546c-2.562,0-4.698-0.848-6.405-2.546
		c-1.708-1.697-2.562-3.773-2.562-6.229c0-2.455,0.853-4.531,2.562-6.229c1.708-1.699,3.843-2.546,6.405-2.546
		s4.696,0.848,6.404,2.546c1.708,1.697,2.562,3.773,2.562,6.229C228.958,444.89,228.103,446.968,226.396,448.665z M216.133,446.455
		c1.013,1.036,2.3,1.552,3.859,1.552c1.558,0,2.844-0.518,3.859-1.552c1.013-1.034,1.521-2.375,1.521-4.018
		c0-1.644-0.508-2.983-1.521-4.019c-1.013-1.034-2.3-1.552-3.859-1.552s-2.846,0.518-3.859,1.552
		c-1.015,1.036-1.521,2.375-1.521,4.019C214.612,444.079,215.118,445.419,216.133,446.455z"/>
	<path fill="#344D5C" d="M236.611,433.79v3.01h4.483v2.881h-4.483v11.272h-3.586v-17.068c0-1.836,0.571-3.271,1.713-4.307
		c1.142-1.034,2.605-1.552,4.388-1.552c1.782,0,3.304,0.566,4.564,1.697l-1.473,2.883c-0.789-0.834-1.773-1.249-2.946-1.249
		C237.497,431.355,236.611,432.167,236.611,433.79z"/>
	<path fill="#344D5C" d="M264.375,450.954h-4.227l-8.999-22.385h4.227l6.885,16.716l6.885-16.716h4.227L264.375,450.954z"/>
	<path fill="#344D5C" d="M291.69,430.523c1.558,1.302,2.338,3.309,2.338,6.021c0,2.712-0.797,4.696-2.386,5.956
		c-1.591,1.26-4.03,1.889-7.316,1.889h-3.97v6.564h-3.778v-22.385h7.685C287.655,428.571,290.131,429.221,291.69,430.523z
		 M289.015,439.762c0.758-0.8,1.137-1.974,1.137-3.523c0-1.547-0.481-2.641-1.441-3.283c-0.96-0.64-2.465-0.96-4.515-0.96h-3.843
		v8.968h4.388C286.834,440.962,288.258,440.562,289.015,439.762z"/>
	<path fill="#344D5C" d="M305.252,431.515c-1.1,0-2.002,0.224-2.705,0.673c-0.705,0.448-1.057,1.126-1.057,2.034
		s0.352,1.602,1.057,2.081c0.705,0.479,2.204,0.997,4.499,1.552c2.294,0.555,4.023,1.334,5.188,2.338
		c1.163,1.004,1.745,2.481,1.745,4.435c0,1.954-0.737,3.538-2.21,4.756c-1.473,1.216-3.406,1.826-5.796,1.826
		c-3.501,0-6.608-1.205-9.318-3.618l2.37-2.849c2.263,1.965,4.612,2.946,7.045,2.946c1.218,0,2.183-0.261,2.899-0.784
		c0.715-0.523,1.073-1.218,1.073-2.081s-0.337-1.537-1.01-2.018c-0.673-0.479-1.831-0.918-3.475-1.313
		c-1.644-0.395-2.893-0.758-3.746-1.089c-0.855-0.33-1.612-0.763-2.273-1.297c-1.323-1.003-1.986-2.541-1.986-4.612
		c0-2.071,0.752-3.667,2.257-4.788c1.505-1.121,3.367-1.681,5.588-1.681c1.431,0,2.849,0.234,4.259,0.705
		c1.408,0.47,2.626,1.131,3.651,1.986l-2.018,2.849c-0.663-0.597-1.56-1.089-2.691-1.473
		C307.467,431.707,306.351,431.515,305.252,431.515z"/>
	<path fill="#344D5C" d="M23.997,469.944c-1.1,0-2.002,0.224-2.705,0.673c-0.705,0.448-1.057,1.126-1.057,2.034
		c0,0.908,0.352,1.602,1.057,2.081c0.705,0.479,2.204,0.997,4.499,1.552s4.023,1.334,5.188,2.338
		c1.163,1.004,1.745,2.481,1.745,4.435c0,1.954-0.737,3.538-2.21,4.756c-1.473,1.216-3.406,1.826-5.796,1.826
		c-3.501,0-6.608-1.205-9.318-3.618l2.37-2.849c2.263,1.965,4.612,2.946,7.045,2.946c1.218,0,2.183-0.261,2.899-0.784
		c0.715-0.523,1.073-1.218,1.073-2.081c0-0.863-0.337-1.537-1.01-2.018c-0.673-0.479-1.831-0.918-3.475-1.313
		c-1.644-0.395-2.894-0.758-3.746-1.089c-0.855-0.33-1.612-0.763-2.273-1.297c-1.323-1.003-1.986-2.541-1.986-4.612
		c0-2.07,0.752-3.667,2.257-4.788c1.505-1.121,3.367-1.681,5.588-1.681c1.431,0,2.849,0.234,4.259,0.705
		c1.408,0.47,2.626,1.131,3.651,1.986l-2.018,2.849c-0.663-0.597-1.56-1.089-2.691-1.473
		C26.212,470.136,25.096,469.944,23.997,469.944z"/>
	<path fill="#344D5C" d="M40.312,475.227v8.647c0,0.812,0.213,1.457,0.64,1.938c0.426,0.479,1.024,0.721,1.792,0.721
		s1.505-0.372,2.21-1.121l1.473,2.53c-1.26,1.131-2.654,1.697-4.18,1.697c-1.526,0-2.828-0.529-3.907-1.586
		c-1.078-1.057-1.618-2.481-1.618-4.275V467h3.586v5.348h4.483v2.883h-4.479V475.227z"/>
	<path fill="#344D5C" d="M50.591,487.204c-1.602-1.623-2.402-3.757-2.402-6.405c0-2.647,0.821-4.76,2.465-6.34
		c1.644-1.579,3.586-2.37,5.829-2.37c2.241,0,4.088,1.068,5.54,3.202v-2.946h3.586v17.036h-3.586v-2.786
		c-0.684,0.982-1.552,1.734-2.61,2.257c-1.057,0.523-2.12,0.784-3.186,0.784C54.07,489.638,52.191,488.826,50.591,487.204z
		 M51.775,480.944c0,1.634,0.523,2.962,1.57,3.988c1.045,1.026,2.273,1.537,3.683,1.537c1.41,0,2.605-0.518,3.586-1.552
		c0.982-1.034,1.473-2.365,1.473-3.986c0-1.623-0.492-2.978-1.473-4.067c-0.982-1.089-2.189-1.634-3.618-1.634
		c-1.431,0-2.657,0.544-3.683,1.634C52.288,477.95,51.775,479.31,51.775,480.944z"/>
	<path fill="#344D5C" d="M79.732,475.706c-1.773,0-3.107,0.576-4.004,1.729c-0.897,1.152-1.345,2.701-1.345,4.643v7.302h-3.586
		v-17.036h3.586v3.426c0.576-1.068,1.36-1.942,2.354-2.626c0.992-0.682,2.044-1.034,3.154-1.057l0.032,3.618
		C79.859,475.706,79.795,475.706,79.732,475.706z"/>
	<path fill="#344D5C" d="M93.822,489.381h-9.799v-22.385h8.71c1.515,0,2.823,0.182,3.923,0.544c1.1,0.363,1.915,0.855,2.449,1.473
		c1.026,1.152,1.538,2.455,1.538,3.907c0,1.75-0.555,3.054-1.665,3.907c-0.405,0.3-0.684,0.486-0.834,0.56
		c-0.15,0.076-0.416,0.197-0.8,0.368c1.387,0.3,2.492,0.923,3.315,1.873c0.821,0.95,1.234,2.13,1.234,3.538
		c0,1.558-0.534,2.936-1.602,4.13C99.031,488.688,96.874,489.381,93.822,489.381z M87.801,476.284h4.804
		c2.733,0,4.099-0.929,4.099-2.786c0-1.068-0.331-1.836-0.992-2.305c-0.663-0.47-1.686-0.705-3.073-0.705h-4.835v5.796H87.801z
		 M87.801,485.89h5.924c1.387,0,2.449-0.219,3.186-0.656c0.737-0.437,1.105-1.265,1.105-2.481c0-1.986-1.589-2.978-4.772-2.978
		h-5.443V485.89z"/>
	<path fill="#344D5C" d="M120.369,487.092c-1.708,1.697-3.843,2.546-6.404,2.546c-2.562,0-4.698-0.848-6.405-2.546
		c-1.708-1.697-2.562-3.773-2.562-6.229c0-2.455,0.853-4.531,2.562-6.229c1.708-1.699,3.843-2.546,6.405-2.546
		s4.696,0.848,6.404,2.546c1.708,1.697,2.562,3.773,2.562,6.229C122.929,483.319,122.076,485.395,120.369,487.092z M110.104,484.882
		c1.013,1.036,2.3,1.552,3.859,1.552c1.558,0,2.844-0.518,3.859-1.552c1.013-1.034,1.521-2.375,1.521-4.018
		c0-1.644-0.508-2.983-1.521-4.019c-1.013-1.034-2.3-1.552-3.859-1.552c-1.56,0-2.846,0.518-3.859,1.552
		c-1.015,1.036-1.521,2.375-1.521,4.019C108.584,482.507,109.091,483.846,110.104,484.882z"/>
	<path fill="#344D5C" d="M138.91,481.567v-9.223h3.586v17.036h-3.586v-3.107c-0.576,1.047-1.373,1.868-2.386,2.465
		c-1.015,0.597-2.108,0.897-3.283,0.897c-1.921,0-3.475-0.587-4.659-1.76c-1.184-1.174-1.778-2.871-1.778-5.091v-10.439h3.586v9.352
		c0,3.138,1.302,4.707,3.907,4.707c1.237,0,2.316-0.411,3.234-1.234C138.45,484.348,138.91,483.148,138.91,481.567z"/>
	<path fill="#344D5C" d="M151.27,480.158v9.223h-3.586v-17.036h3.586v3.107c0.576-1.045,1.371-1.868,2.386-2.465
		c1.013-0.597,2.107-0.897,3.283-0.897c1.921,0,3.475,0.587,4.659,1.76c1.184,1.175,1.778,2.872,1.778,5.091v10.439h-3.586v-9.35
		c0-3.138-1.302-4.708-3.907-4.708c-1.239,0-2.317,0.412-3.234,1.234C151.73,477.377,151.27,478.579,151.27,480.158z"/>
	<path fill="#344D5C" d="M169.684,487.204c-1.602-1.623-2.402-3.757-2.402-6.405c0-2.647,0.821-4.76,2.465-6.34
		c1.644-1.579,3.602-2.37,5.877-2.37s4.104,0.96,5.493,2.883v-9.352h3.586v23.761h-3.586v-2.562
		c-1.323,1.878-3.256,2.818-5.796,2.818C173.163,489.638,171.284,488.826,169.684,487.204z M170.868,480.944
		c0,1.634,0.523,2.962,1.57,3.988c1.045,1.026,2.273,1.537,3.683,1.537c1.41,0,2.605-0.518,3.586-1.552
		c0.982-1.034,1.473-2.365,1.473-3.986c0-1.623-0.492-2.978-1.473-4.067c-0.982-1.089-2.189-1.634-3.618-1.634
		c-1.431,0-2.657,0.544-3.683,1.634C171.381,477.95,170.868,479.31,170.868,480.944z"/>
	<path fill="#344D5C" d="M202.251,480.158v9.223h-3.586v-23.729h3.586v9.799c0.513-1.045,1.286-1.868,2.322-2.465
		c1.034-0.597,2.15-0.897,3.346-0.897c1.921,0,3.475,0.587,4.659,1.76c1.184,1.175,1.778,2.872,1.778,5.091v10.439h-3.586v-9.35
		c0-3.138-1.302-4.708-3.907-4.708c-1.239,0-2.317,0.412-3.234,1.234C202.709,477.377,202.251,478.579,202.251,480.158z"/>
	<path fill="#344D5C" d="M233.601,487.092c-1.708,1.697-3.843,2.546-6.404,2.546c-2.562,0-4.698-0.848-6.405-2.546
		c-1.708-1.697-2.562-3.773-2.562-6.229c0-2.455,0.853-4.531,2.562-6.229c1.708-1.699,3.843-2.546,6.405-2.546
		s4.696,0.848,6.404,2.546c1.708,1.697,2.562,3.773,2.562,6.229C236.163,483.319,235.309,485.395,233.601,487.092z M223.338,484.882
		c1.013,1.036,2.3,1.552,3.859,1.552c1.558,0,2.844-0.518,3.859-1.552c1.013-1.034,1.521-2.375,1.521-4.018
		c0-1.644-0.508-2.983-1.521-4.019c-1.013-1.034-2.301-1.552-3.859-1.552c-1.56,0-2.846,0.518-3.859,1.552
		c-1.015,1.036-1.521,2.375-1.521,4.019C221.816,482.507,222.323,483.846,223.338,484.882z"/>
	<path fill="#344D5C" d="M252.366,484.29c0,1.623-0.587,2.92-1.76,3.891c-1.175,0.971-2.68,1.457-4.516,1.457
		c-1.239,0-2.525-0.224-3.859-0.673c-1.334-0.449-2.513-1.078-3.538-1.889l1.729-2.786c1.986,1.494,3.907,2.241,5.766,2.241
		c0.811,0,1.452-0.187,1.921-0.56c0.469-0.374,0.705-0.848,0.705-1.426c0-0.853-1.131-1.623-3.394-2.305
		c-0.171-0.063-0.3-0.106-0.384-0.129c-3.544-0.96-5.316-2.562-5.316-4.804c0-1.581,0.613-2.844,1.841-3.796
		c1.228-0.95,2.823-1.426,4.788-1.426c1.965,0,3.822,0.576,5.572,1.729l-1.345,2.657c-1.387-0.918-2.894-1.378-4.515-1.378
		c-0.855,0-1.549,0.155-2.081,0.465c-0.534,0.31-0.8,0.774-0.8,1.392c0,0.555,0.277,0.96,0.832,1.218
		c0.384,0.192,0.923,0.374,1.618,0.544c0.694,0.171,1.308,0.342,1.841,0.513c0.532,0.171,1.05,0.363,1.552,0.576
		c0.5,0.213,1.04,0.513,1.618,0.897C251.79,481.47,252.366,482.667,252.366,484.29z"/>
	<path fill="#344D5C" d="M259.861,475.227v8.647c0,0.812,0.213,1.457,0.64,1.938c0.426,0.479,1.024,0.721,1.792,0.721
		c0.768,0,1.505-0.372,2.21-1.121l1.473,2.53c-1.26,1.131-2.654,1.697-4.18,1.697s-2.828-0.529-3.907-1.586
		c-1.078-1.057-1.618-2.481-1.618-4.275V467h3.586v5.348h4.483v2.883h-4.479V475.227z"/>
	<path fill="#344D5C" d="M269.05,468.95c-0.448-0.448-0.673-0.982-0.673-1.602c0-0.619,0.224-1.152,0.673-1.6
		c0.449-0.448,0.982-0.673,1.602-0.673c0.619,0,1.152,0.224,1.602,0.673c0.448,0.448,0.673,0.982,0.673,1.6
		c0,0.62-0.224,1.152-0.673,1.602c-0.449,0.448-0.983,0.673-1.602,0.673C270.032,469.624,269.5,469.398,269.05,468.95z
		 M272.412,489.381h-3.586v-17.036h3.586V489.381z"/>
	<path fill="#344D5C" d="M281.186,480.158v9.223H277.6v-17.036h3.586v3.107c0.576-1.045,1.371-1.868,2.386-2.465
		c1.013-0.597,2.108-0.897,3.283-0.897c1.921,0,3.475,0.587,4.659,1.76c1.184,1.175,1.778,2.872,1.778,5.091v10.439h-3.586v-9.35
		c0-3.138-1.302-4.708-3.907-4.708c-1.239,0-2.317,0.412-3.234,1.234C281.646,477.377,281.186,478.579,281.186,480.158z"/>
	<path fill="#344D5C" d="M305.717,493c3.16,0,4.738-2.039,4.738-6.116v-0.96c-0.471,0.747-1.212,1.383-2.226,1.905
		c-1.015,0.523-2.097,0.784-3.251,0.784c-2.263,0-4.12-0.789-5.572-2.37c-1.452-1.579-2.178-3.544-2.178-5.893
		c0-2.347,0.726-4.312,2.178-5.893c1.452-1.579,3.283-2.37,5.491-2.37c2.21,0,4.062,0.768,5.556,2.305v-2.049h3.586v14.635
		c0,2.967-0.774,5.241-2.321,6.821c-1.549,1.581-3.551,2.37-6.004,2.37c-1.878,0-3.528-0.448-4.948-1.345
		c-1.42-0.897-2.451-2.178-3.091-3.843l3.138-1.345C301.671,491.879,303.303,493,305.717,493z M300.753,480.207
		c0,1.399,0.432,2.604,1.297,3.618c0.865,1.015,2.028,1.521,3.491,1.521s2.647-0.492,3.554-1.473c0.908-0.982,1.36-2.204,1.36-3.667
		c0-1.463-0.46-2.701-1.376-3.715c-0.918-1.013-2.102-1.521-3.554-1.521c-1.452,0-2.61,0.523-3.475,1.568
		C301.185,477.587,300.753,478.808,300.753,480.207z"/>
</g>
</svg>
