<?xml version="1.0" encoding="utf-8"?>
<!-- Generator: Adobe Illustrator 17.0.2, SVG Export Plug-In . SVG Version: 6.00 Build 0)  -->
<!DOCTYPE svg PUBLIC "-//W3C//DTD SVG 1.1//EN" "http://www.w3.org/Graphics/SVG/1.1/DTD/svg11.dtd">
<svg version="1.1" id="Layer_1" xmlns="http://www.w3.org/2000/svg" xmlns:xlink="http://www.w3.org/1999/xlink" x="0px" y="0px"
	 width="320.286px" height="243.184px" viewBox="0 0 320.286 243.184" enable-background="new 0 0 320.286 243.184"
	 xml:space="preserve">
<g>
	<path fill="#344D5C" d="M18.62,96.362c-2.179,0-3.967,0.444-5.365,1.332c-1.397,0.888-2.094,2.232-2.094,4.03
		c0,1.8,0.699,3.174,2.094,4.125c1.397,0.951,4.368,1.98,8.919,3.079c4.549,1.101,7.976,2.645,10.283,4.634
		c2.305,1.99,3.46,4.921,3.46,8.791c0,3.872-1.461,7.015-4.38,9.426c-2.919,2.412-6.75,3.618-11.489,3.618
		c-6.942,0-13.098-2.39-18.472-7.172l4.697-5.649c4.484,3.894,9.14,5.84,13.964,5.84c2.412,0,4.326-0.517,5.745-1.555
		c1.417-1.036,2.126-2.412,2.126-4.125s-0.667-3.047-1.999-3.999c-1.332-0.951-3.63-1.818-6.886-2.601
		c-3.259-0.784-5.736-1.502-7.427-2.159c-1.693-0.655-3.195-1.512-4.508-2.572c-2.625-1.988-3.936-5.035-3.936-9.14
		c0-4.103,1.492-7.267,4.474-9.49s6.675-3.332,11.076-3.332c2.834,0,5.649,0.466,8.442,1.397c2.793,0.932,5.205,2.244,7.236,3.936
		l-3.999,5.649c-1.313-1.184-3.089-2.157-5.333-2.919C23.009,96.743,20.799,96.362,18.62,96.362z"/>
	<path fill="#344D5C" d="M50.961,106.837v17.14c0,1.609,0.422,2.888,1.269,3.841c0.847,0.951,2.031,1.429,3.555,1.429
		s2.984-0.74,4.38-2.222l2.919,5.015c-2.499,2.244-5.258,3.365-8.284,3.365s-5.607-1.048-7.745-3.142
		c-2.138-2.094-3.205-4.92-3.205-8.475V90.524h7.109v10.601h8.888v5.714h-8.886V106.837z"/>
	<path fill="#344D5C" d="M71.336,130.577c-3.174-3.215-4.761-7.449-4.761-12.695c0-5.246,1.628-9.436,4.889-12.569
		c3.259-3.132,7.109-4.697,11.552-4.697s8.104,2.116,10.982,6.347v-5.84h7.109v33.77h-7.109v-5.522
		c-1.356,1.948-3.079,3.438-5.173,4.474c-2.094,1.038-4.2,1.555-6.316,1.555C78.232,135.401,74.509,133.794,71.336,130.577z
		 M73.684,118.166c0,3.237,1.036,5.872,3.111,7.903c2.072,2.031,4.506,3.047,7.299,3.047s5.163-1.026,7.109-3.079
		c1.946-2.053,2.919-4.688,2.919-7.903c0-3.215-0.973-5.903-2.919-8.061c-1.948-2.159-4.338-3.237-7.172-3.237
		c-2.836,0-5.268,1.08-7.301,3.237C74.699,112.231,73.684,114.929,73.684,118.166z"/>
	<path fill="#344D5C" d="M129.098,107.788c-3.513,0-6.158,1.143-7.934,3.428c-1.776,2.286-2.665,5.355-2.665,9.203v14.473h-7.109
		v-33.77h7.109v6.792c1.143-2.116,2.698-3.851,4.666-5.205c1.968-1.354,4.05-2.053,6.253-2.094l0.063,7.172
		C129.353,107.788,129.227,107.788,129.098,107.788z"/>
	<path fill="#344D5C" d="M154.299,107.788c-3.513,0-6.158,1.143-7.934,3.428c-1.776,2.286-2.665,5.355-2.665,9.203v14.473h-7.109
		v-33.77h7.109v6.792c1.143-2.116,2.698-3.851,4.666-5.205c1.968-1.354,4.05-2.053,6.253-2.094l0.063,7.172
		C154.551,107.788,154.425,107.788,154.299,107.788z"/>
	<path fill="#344D5C" d="M175.816,141.876c6.263,0,9.395-3.979,9.395-11.933v-2.094c-2.836,2.919-6.454,4.38-10.855,4.38
		c-8.759,0-13.141-4.802-13.141-14.41v-16.631h7.109v13.457c0,3.936,0.602,6.719,1.81,8.347c1.206,1.628,3.278,2.443,6.221,2.443
		c2.941,0,5.088-0.75,6.442-2.254c1.354-1.502,2.159-3.776,2.412-6.823v-15.235h7.109v29.01c0,5.882-1.534,10.388-4.603,13.52
		c-3.069,3.132-7.036,4.697-11.902,4.697c-3.724,0-6.993-0.888-9.807-2.667s-4.855-4.317-6.126-7.617l6.411-2.73
		C167.945,139.695,171.119,141.876,175.816,141.876z"/>
	<path fill="#344D5C" d="M237.325,96.331c4.273,3.872,6.411,9.259,6.411,16.155c0,6.898-2.074,12.357-6.221,16.378
		c-4.149,4.02-10.496,6.03-19.042,6.03h-14.726V90.524h15.233C226.936,90.522,233.05,92.458,237.325,96.331z M236.182,112.675
		c0-10.157-5.819-15.233-17.456-15.233h-7.49v30.405h8.315c5.372,0,9.49-1.279,12.346-3.841
		C234.753,121.446,236.182,117.671,236.182,112.675z"/>
	<path fill="#344D5C" d="M267.728,100.616c4.613,0,8.442,1.281,11.489,3.841c3.047,2.56,4.591,5.894,4.634,9.997l0.063,0.126
		l-24.63,10.346c2.199,2.71,5.195,4.064,8.982,4.064c3.788,0,6.908-1.48,9.363-4.443l4.19,4.634
		c-4.02,4.149-8.759,6.221-14.219,6.221c-4.782,0-8.888-1.587-12.316-4.761c-3.428-3.174-5.142-7.364-5.142-12.569
		c0-3.596,0.89-6.76,2.666-9.49c1.776-2.73,3.977-4.739,6.602-6.03C262.038,101.261,264.809,100.616,267.728,100.616z
		 M257.001,118.198c0,0.551,0.022,0.951,0.063,1.206l18.727-8.061c-1.439-2.793-3.999-4.19-7.68-4.19
		c-2.795,0-5.343,0.973-7.65,2.919C258.154,112.02,257.001,114.73,257.001,118.198z"/>
	<path fill="#344D5C" d="M296.612,101.123l7.236,11.108l7.49-11.108h8.442l-11.807,16.504l12.314,17.266h-8.759l-8.063-11.236
		l-7.871,11.236h-8.315l11.996-17.203l-11.363-16.567L296.612,101.123L296.612,101.123z"/>
</g>
<g>
	<circle fill="#42B09C" cx="251.353" cy="41.537" r="36.703"/>
	<circle fill="#EEC84D" cx="116.586" cy="36.703" r="36.703"/>
	<circle fill="#354D5C" cx="161.085" cy="123.829" r="89.281"/>
	<circle fill="#DE5A49" cx="79.872" cy="195.741" r="47.442"/>
	<circle fill="#E17A3C" cx="143.503" cy="190.041" r="26.912"/>
</g>
<g>
	<path fill="#DE5A49" d="M17.043,94.786c-2.179,0-3.967,0.444-5.365,1.332c-1.397,0.888-2.094,2.232-2.094,4.03
		c0,1.8,0.699,3.174,2.094,4.125c1.397,0.951,4.368,1.98,8.919,3.079c4.549,1.101,7.976,2.645,10.283,4.634
		c2.305,1.989,3.46,4.92,3.46,8.791c0,3.872-1.461,7.015-4.38,9.426c-2.919,2.412-6.75,3.618-11.489,3.618
		c-6.942,0-13.098-2.39-18.472-7.172l4.697-5.649c4.484,3.894,9.14,5.84,13.964,5.84c2.412,0,4.326-0.517,5.745-1.555
		c1.417-1.036,2.126-2.412,2.126-4.125s-0.667-3.047-1.999-3.999c-1.332-0.951-3.63-1.818-6.886-2.601
		c-3.259-0.784-5.736-1.502-7.427-2.159c-1.693-0.655-3.195-1.512-4.508-2.572c-2.625-1.988-3.936-5.035-3.936-9.14
		c0-4.103,1.492-7.267,4.474-9.49s6.675-3.332,11.076-3.332c2.834,0,5.649,0.466,8.442,1.397c2.793,0.932,5.205,2.244,7.236,3.936
		l-3.999,5.649c-1.313-1.184-3.089-2.157-5.333-2.919C21.433,95.167,19.222,94.786,17.043,94.786z"/>
	<path fill="#DE5A49" d="M49.384,105.26v17.14c0,1.609,0.422,2.888,1.269,3.841c0.847,0.951,2.031,1.429,3.555,1.429
		s2.984-0.74,4.38-2.222l2.919,5.015c-2.499,2.244-5.258,3.365-8.284,3.365c-3.026,0-5.607-1.048-7.745-3.142
		c-2.138-2.094-3.205-4.921-3.205-8.475V88.947h7.109v10.601h8.888v5.714h-8.886V105.26z"/>
	<path fill="#DE5A49" d="M69.759,129c-3.174-3.215-4.761-7.449-4.761-12.695c0-5.246,1.628-9.436,4.889-12.569
		c3.259-3.132,7.109-4.697,11.552-4.697c4.443,0,8.104,2.116,10.982,6.347v-5.84h7.109v33.77h-7.109v-5.522
		c-1.356,1.948-3.079,3.438-5.173,4.474c-2.094,1.038-4.2,1.555-6.316,1.555C76.655,133.824,72.933,132.217,69.759,129z
		 M72.108,116.589c0,3.237,1.036,5.872,3.111,7.903c2.072,2.031,4.506,3.047,7.299,3.047c2.793,0,5.163-1.026,7.109-3.079
		c1.946-2.053,2.919-4.688,2.919-7.903s-0.973-5.903-2.919-8.061c-1.948-2.159-4.338-3.237-7.172-3.237
		c-2.836,0-5.268,1.08-7.301,3.237C73.122,110.655,72.108,113.353,72.108,116.589z"/>
	<path fill="#DE5A49" d="M127.522,106.212c-3.513,0-6.158,1.143-7.934,3.428c-1.776,2.286-2.665,5.355-2.665,9.203v14.473h-7.109
		v-33.77h7.109v6.792c1.143-2.116,2.698-3.851,4.666-5.205c1.968-1.354,4.05-2.053,6.253-2.094l0.063,7.172
		C127.776,106.212,127.65,106.212,127.522,106.212z"/>
	<path fill="#DE5A49" d="M152.722,106.212c-3.513,0-6.158,1.143-7.934,3.428c-1.776,2.286-2.665,5.355-2.665,9.203v14.473h-7.109
		v-33.77h7.109v6.792c1.143-2.116,2.698-3.851,4.666-5.205c1.968-1.354,4.05-2.053,6.253-2.094l0.063,7.172
		C152.975,106.212,152.849,106.212,152.722,106.212z"/>
	<path fill="#DE5A49" d="M174.24,140.3c6.263,0,9.395-3.979,9.395-11.933v-2.094c-2.836,2.919-6.454,4.38-10.855,4.38
		c-8.759,0-13.141-4.802-13.141-14.41V99.612h7.109v13.457c0,3.936,0.602,6.719,1.81,8.347c1.206,1.628,3.278,2.443,6.221,2.443
		c2.941,0,5.088-0.75,6.442-2.254c1.354-1.502,2.159-3.776,2.412-6.823V99.546h7.109v29.01c0,5.882-1.534,10.388-4.603,13.52
		c-3.069,3.132-7.036,4.697-11.902,4.697c-3.724,0-6.993-0.888-9.807-2.667c-2.814-1.778-4.855-4.317-6.126-7.617l6.411-2.73
		C166.369,138.119,169.542,140.3,174.24,140.3z"/>
	<path fill="#DE5A49" d="M235.749,94.754c4.273,3.872,6.411,9.259,6.411,16.155c0,6.898-2.074,12.357-6.221,16.378
		c-4.149,4.02-10.496,6.03-19.042,6.03H202.17V88.948h15.233C225.359,88.946,231.474,90.882,235.749,94.754z M234.606,111.099
		c0-10.157-5.819-15.233-17.456-15.233h-7.49v30.405h8.315c5.372,0,9.49-1.279,12.346-3.841
		C233.177,119.87,234.606,116.094,234.606,111.099z"/>
	<path fill="#DE5A49" d="M266.152,99.039c4.613,0,8.442,1.281,11.489,3.841c3.047,2.56,4.591,5.894,4.634,9.997l0.063,0.126
		l-24.63,10.346c2.199,2.71,5.195,4.064,8.982,4.064c3.788,0,6.908-1.48,9.363-4.443l4.19,4.634
		c-4.02,4.149-8.759,6.221-14.219,6.221c-4.782,0-8.888-1.587-12.316-4.761c-3.428-3.174-5.142-7.364-5.142-12.569
		c0-3.596,0.89-6.76,2.666-9.49c1.776-2.73,3.977-4.739,6.602-6.03C260.462,99.685,263.233,99.039,266.152,99.039z M255.425,116.621
		c0,0.551,0.022,0.951,0.063,1.206l18.727-8.061c-1.439-2.793-3.999-4.19-7.68-4.19c-2.795,0-5.343,0.973-7.65,2.919
		C256.577,110.443,255.425,113.153,255.425,116.621z"/>
	<path fill="#DE5A49" d="M295.035,99.546l7.236,11.108l7.49-11.108h8.442l-11.807,16.504l12.314,17.266h-8.759l-8.063-11.236
		l-7.871,11.236h-8.315l11.996-17.203l-11.363-16.567L295.035,99.546L295.035,99.546z"/>
</g>
</svg>
