<?xml version="1.0" encoding="utf-8"?>
<!-- Generator: Adobe Illustrator 17.0.2, SVG Export Plug-In . SVG Version: 6.00 Build 0)  -->
<!DOCTYPE svg PUBLIC "-//W3C//DTD SVG 1.1//EN" "http://www.w3.org/Graphics/SVG/1.1/DTD/svg11.dtd">
<svg version="1.1" id="Layer_1" xmlns="http://www.w3.org/2000/svg" xmlns:xlink="http://www.w3.org/1999/xlink" x="0px" y="0px"
	 width="792px" height="612px" viewBox="0 0 792 612" enable-background="new 0 0 792 612" xml:space="preserve">
<g id="Layer_2">
	<g>
		<path fill="#344D5C" d="M409.463,301.358c16.125,35.418-83.615,7.085-163.981,43.675s25.162,131.804-43.656,118.34
			C163.633,455.901-5,234.447,75.366,197.857S393.337,265.94,409.463,301.358z"/>
		<path fill="#44B29D" d="M413.608,290.799c16.803,36.907-81.796,4.955-159.581,40.369s28.36,136.37-39.501,120.587
			C176.866,442.996,5.31,210.337,83.095,174.922S396.805,253.892,413.608,290.799z"/>
	</g>
	<g>
		<g>
			<g>
				<circle fill="#DF5A49" cx="775.275" cy="551.918" r="6.955"/>
				<circle fill="#DF5A49" cx="590.396" cy="547.355" r="8.153"/>
			</g>
			<g>
				<circle fill="#DF5A49" cx="687.015" cy="492.349" r="6.244"/>
				<circle fill="#DF5A49" cx="678.265" cy="598.801" r="5.6"/>
			</g>
			<g>
				<circle fill="#DF5A49" cx="600.162" cy="600.89" r="6.955"/>
				
					<ellipse transform="matrix(-0.8438 0.5367 -0.5367 -0.8438 1673.5031 511.1595)" fill="#DF5A49" cx="762.357" cy="499.141" rx="8.213" ry="8.23"/>
			</g>
			<g>
				<circle fill="#DF5A49" cx="708.268" cy="595.638" r="6.955"/>
				
					<ellipse transform="matrix(0.4868 0.8735 -0.8735 0.4868 776.4521 -315.386)" fill="#DF5A49" cx="656.636" cy="503.108" rx="5.906" ry="5.649"/>
			</g>
		</g>
		<polyline fill="#DF5A49" points="589.949,549.037 668.506,551.084 599.421,599.637 601.492,603.135 676.878,557.425 
			676.727,598.549 679.941,598.9 684.874,560.478 706.62,596.817 709.317,595.017 691.261,554.414 775.046,553.733 775.454,550.219 
			696.7,544.555 763.1,500.614 761.378,497.533 687.594,537.293 687.921,491.639 685.463,491.279 680.114,535.594 658.232,502.777 
			655.015,504.045 674.275,542.583 589.966,546.105 		"/>
	</g>
	<g>
		<g>
			<g>
				<path fill="#E27A3E" d="M708.252,271.873c-4.839,1.142-7.872,5.981-6.777,10.809c1.096,4.828,5.906,7.816,10.745,6.674
					c4.838-1.142,7.872-5.981,6.777-10.809C717.901,273.719,713.09,270.731,708.252,271.873z"/>
				<path fill="#E27A3E" d="M655.494,37.832c-5.672,1.339-9.229,7.012-7.945,12.672s6.924,9.163,12.597,7.824
					c5.672-1.339,9.229-7.012,7.945-12.672S661.167,36.493,655.494,37.832z"/>
			</g>
			<g>
				<path fill="#E27A3E" d="M749.154,152.272c0.73,4.387,4.884,7.317,9.278,6.545c4.394-0.772,7.364-4.954,6.634-9.341
					s-4.884-7.317-9.278-6.545S748.424,147.885,749.154,152.272z"/>
				<path fill="#E27A3E" d="M613.864,175.935c0.655,3.935,4.38,6.563,8.321,5.871s6.605-4.443,5.95-8.378
					c-0.655-3.935-4.38-6.563-8.321-5.871C615.873,168.249,613.209,172,613.864,175.935z"/>
			</g>
			<g>
				<path fill="#E27A3E" d="M600.346,83.872c3.412-3.634,3.258-9.318-0.343-12.695c-3.602-3.377-9.287-3.169-12.699,0.464
					c-3.412,3.634-3.258,9.318,0.343,12.695C591.249,87.714,596.934,87.506,600.346,83.872z"/>
				<path fill="#E27A3E" d="M779.972,254.447c4.038-4.3,3.863-11.02-0.39-15.008c-4.253-3.989-10.974-3.736-15.012,0.565
					c-4.038,4.3-3.863,11.02,0.39,15.008C769.213,259.001,775.934,258.748,779.972,254.447z"/>
			</g>
			<g>
				<path fill="#E27A3E" d="M640.941,204.93c-3.397-3.583-9.082-3.705-12.697-0.273c-3.615,3.432-3.792,9.118-0.394,12.7
					c3.397,3.583,9.082,3.705,12.697,0.273C644.162,214.199,644.339,208.513,640.941,204.93z"/>
				<path fill="#E27A3E" d="M739.647,111.115c-2.76-2.91-7.486-2.907-10.556,0.007s-3.322,7.636-0.562,10.546
					c2.76,2.91,7.486,2.907,10.556-0.007C742.156,118.747,742.407,114.025,739.647,111.115z"/>
			</g>
		</g>
		<polyline fill="#E27A3E" points="655.573,48.071 677.709,146.912 595.161,76.421 591.43,80.152 672.398,159.444 620.831,172.677 
			621.402,176.808 671.087,170.433 632.4,209.47 635.504,212.252 680.692,176.436 707.89,280.921 712.421,280.284 694.754,180.015 
			770.68,248.656 773.998,245.498 700.988,166.266 758.285,151.774 757.963,148.585 700.765,156.363 734.996,118.307 732.397,114.7 
			690.174,151.347 659.251,47.135 		"/>
	</g>
	<g>
		<g>
			<g>
				<path fill="#344D5C" d="M172.519,179.348c0.795,3.37,4.166,5.484,7.529,4.72s5.444-4.114,4.649-7.484s-4.166-5.484-7.529-4.72
					S171.724,175.978,172.519,179.348z"/>
				<path fill="#344D5C" d="M9.5,216.096c0.932,3.951,4.884,6.429,8.827,5.534c3.942-0.895,6.382-4.823,5.45-8.774
					s-4.884-6.429-8.827-5.534S8.567,212.145,9.5,216.096z"/>
			</g>
			<g>
				<path fill="#344D5C" d="M89.212,150.858c3.056-0.509,5.097-3.402,4.559-6.463s-3.451-5.13-6.506-4.621s-5.097,3.402-4.559,6.463
					C83.243,149.298,86.156,151.367,89.212,150.858z"/>
				<path fill="#344D5C" d="M105.694,245.093c2.741-0.456,4.571-3.051,4.089-5.796s-3.095-4.601-5.836-4.145
					s-4.571,3.051-4.089,5.796C100.341,243.694,102.953,245.549,105.694,245.093z"/>
			</g>
			<g>
				<path fill="#344D5C" d="M41.569,254.509c-2.531-2.377-6.49-2.269-8.843,0.239c-2.352,2.509-2.208,6.469,0.323,8.845
					c2.531,2.376,6.49,2.269,8.843-0.239S44.1,256.885,41.569,254.509z"/>
				<path fill="#344D5C" d="M160.381,129.392c-2.995-2.812-7.676-2.691-10.454,0.272c-2.778,2.962-2.602,7.644,0.393,10.456
					s7.676,2.691,10.454-0.272C163.553,136.886,163.377,132.205,160.381,129.392z"/>
			</g>
			<g>
				
					<ellipse transform="matrix(0.6885 0.7253 -0.7253 0.6885 207.9381 -22.542)" fill="#344D5C" cx="130.209" cy="230.776" rx="6.287" ry="6.227"/>
				
					<ellipse transform="matrix(0.6885 0.7253 -0.7253 0.6885 137.0194 3.6896)" fill="#344D5C" cx="64.215" cy="161.34" rx="5.339" ry="5.058"/>
			</g>
		</g>
		<polyline fill="#344D5C" points="16.631,216.041 85.478,200.622 36.378,258.12 38.977,260.719 94.207,204.321 103.425,240.24 
			106.302,239.842 101.862,205.235 129.052,232.182 130.991,230.02 106.043,198.545 178.821,179.6 178.377,176.444 108.536,188.75 
			156.347,135.865 154.148,133.553 98.959,184.408 88.865,144.498 86.644,144.723 92.061,184.563 65.554,160.72 63.041,162.53 
			88.568,191.94 15.98,213.479 		"/>
	</g>
	<g>
		<g>
			<g>
				<circle fill="#44B29D" cx="156.496" cy="529.682" r="4.483"/>
				<circle fill="#44B29D" cx="248.293" cy="605.744" r="5.256"/>
			</g>
			<g>
				<circle fill="#44B29D" cx="177.425" cy="595.054" r="4.025"/>
				<circle fill="#44B29D" cx="224.322" cy="544.641" r="3.61"/>
			</g>
			<g>
				<circle fill="#44B29D" cx="264.704" cy="574.74" r="4.483"/>
				
					<ellipse transform="matrix(0.9949 0.1006 -0.1006 0.9949 57.2163 -11.4399)" fill="#44B29D" cx="142.033" cy="561.572" rx="5.294" ry="5.305"/>
			</g>
			<g>
				<circle fill="#44B29D" cx="207.867" cy="534.274" r="4.483"/>
				
					<ellipse transform="matrix(0.1582 -0.9874 0.9874 0.1582 -428.2023 701.134)" fill="#44B29D" cx="197.104" cy="601.702" rx="3.807" ry="3.642"/>
			</g>
		</g>
		<polyline fill="#44B29D" points="249.19,605.07 210.228,572.696 264.58,575.67 264.926,573.072 208.518,566.146 225,545.382 
			223.512,543.922 205.687,561.41 209.172,534.334 207.088,534.17 200.034,561.933 157.336,528.854 155.728,530.471 
			193.347,564.756 142.195,560.517 141.838,562.764 195.061,572.065 176.683,595.053 177.784,596.215 198.171,575.91 
			196.16,601.256 198.295,601.898 203.915,574.7 248.012,606.548 		"/>
	</g>
	<g>
		<g>
			<g>
				<circle fill="#EFC94C" cx="509.955" cy="518.711" r="18.99"/>
				<circle fill="#EFC94C" cx="396.798" cy="26.58" r="22.263"/>
			</g>
			<g>
				<circle fill="#EFC94C" cx="607.743" cy="244.899" r="17.05"/>
				<circle fill="#EFC94C" cx="320.231" cy="293.857" r="15.292"/>
			</g>
			<g>
				<circle fill="#EFC94C" cx="261.804" cy="88.675" r="18.99"/>
				
					<ellipse transform="matrix(-0.7292 -0.6843 0.6843 -0.7292 800.8734 1214.4417)" fill="#EFC94C" cx="640.734" cy="448.755" rx="22.426" ry="22.472"/>
			</g>
			<g>
				<circle fill="#EFC94C" cx="348.919" cy="371.078" r="18.99"/>
				
					<ellipse transform="matrix(-0.7254 0.6883 -0.6883 -0.7254 1082.2306 -88.2097)" fill="#EFC94C" cx="558.71" cy="171.76" rx="16.126" ry="15.425"/>
			</g>
		</g>
		<polyline fill="#EFC94C" points="392.046,26.538 439.841,235.721 264.615,85.864 256.765,93.714 428.74,262.162 319.855,289.618 
			321.104,298.358 426.079,285.381 344.684,367.519 351.273,373.432 446.445,298.168 504.997,519.334 514.571,518.033 
			476.209,305.876 637.416,451.757 644.401,445.114 489.25,276.873 610.236,246.813 609.522,240.069 488.679,255.934 
			560.664,175.824 555.132,168.173 466.237,245.224 399.813,24.597 		"/>
	</g>
</g>
<g id="Layer_1_1_">
	<g>
		<path fill="#DF5A49" d="M174.847,237.473c-1.461,1.201-2.19,2.79-2.19,4.769c0,1.98,0.891,3.552,2.676,4.72
			c1.784,1.168,5.903,2.547,12.361,4.137c6.455,1.59,11.467,3.975,15.037,7.154c3.567,3.179,5.353,7.819,5.353,13.917
			c0,6.099-2.287,11.046-6.861,14.843c-4.574,3.795-10.594,5.693-18.054,5.693c-10.772,0-20.472-3.99-29.1-11.971l9.051-11.096
			c7.331,6.425,14.112,9.636,20.34,9.636c2.79,0,4.98-0.599,6.57-1.801c1.589-1.199,2.384-2.821,2.384-4.866
			c0-2.043-0.844-3.664-2.53-4.865c-1.689-1.2-5.029-2.417-10.025-3.65c-7.917-1.881-13.708-4.331-17.373-7.348
			c-3.666-3.017-5.499-7.752-5.499-14.21c0-6.455,2.319-11.435,6.959-14.939c4.638-3.503,10.429-5.255,17.373-5.255
			c4.541,0,9.083,0.779,13.625,2.336c4.541,1.557,8.499,3.764,11.874,6.618l-7.689,11.095c-5.905-4.477-12.004-6.716-18.297-6.716
			C178.302,235.672,176.307,236.273,174.847,237.473z"/>
		<path fill="#DF5A49" d="M232.901,223.896v15.67h12.653v11.387h-12.653v22.579c0,2.012,0.519,3.586,1.557,4.721
			c1.038,1.136,2.271,1.703,3.699,1.703c2.725,0,5.027-1.231,6.91-3.699l5.451,10.22c-4.542,4.152-9.329,6.229-14.356,6.229
			c-5.029,0-9.28-1.655-12.749-4.965c-3.472-3.309-5.208-7.817-5.208-13.528v-50.317L232.901,223.896L232.901,223.896z"/>
		<path fill="#DF5A49" d="M262.974,285.211c-4.997-4.996-7.493-11.565-7.493-19.708c0-8.142,2.562-14.647,7.688-19.514
			c5.125-4.866,11.062-7.299,17.811-7.299c5.256,0,9.83,1.751,13.723,5.255v-4.379h14.696v52.36h-14.696v-4.282
			c-4.153,3.374-8.89,5.061-14.209,5.061C273.809,292.705,267.97,290.207,262.974,285.211z M270.176,265.843
			c0,4.283,1.265,7.771,3.795,10.462c2.531,2.693,5.482,4.039,8.857,4.039c3.373,0,6.229-1.346,8.564-4.039
			c2.337-2.691,3.504-6.164,3.504-10.413s-1.167-7.802-3.504-10.658c-2.336-2.855-5.223-4.282-8.662-4.282
			c-3.44,0-6.392,1.411-8.857,4.233C271.408,258.008,270.176,261.561,270.176,265.843z"/>
		<path fill="#DF5A49" d="M351.249,252.413c-4.348,0-7.592,1.542-9.733,4.623c-2.142,3.082-3.213,7.153-3.213,12.214v22.676h-14.599
			v-52.36h14.599v6.91c1.882-2.141,4.234-3.957,7.056-5.45c2.823-1.492,5.694-2.271,8.613-2.336l0.097,13.723L351.249,252.413
			L351.249,252.413z"/>
		<path fill="#DF5A49" d="M393.876,238.69c6.358,0,11.906,2.481,16.643,7.445c4.736,4.964,7.105,11.338,7.105,19.125
			c0,7.786-2.433,14.306-7.299,19.562s-10.399,7.884-16.594,7.884c-6.197,0-11.339-2.563-15.427-7.689v6.91h-14.599v-72.215h14.599
			v25.694C382.327,240.928,387.517,238.69,393.876,238.69z M378.11,265.795c0,4.25,1.183,7.721,3.552,10.414
			c2.367,2.693,5.239,4.038,8.613,4.038c3.372,0,6.326-1.345,8.857-4.038s3.795-6.148,3.795-10.365
			c0-4.217-1.233-7.753-3.698-10.609c-2.467-2.855-5.418-4.282-8.857-4.282c-3.44,0-6.343,1.411-8.711,4.233
			C379.293,258.008,378.11,261.546,378.11,265.795z"/>
		<path fill="#DF5A49" d="M480.884,265.746c0,7.591-2.628,13.983-7.882,19.174c-5.256,5.191-11.86,7.786-19.806,7.786
			c-7.95,0-14.551-2.595-19.807-7.786c-5.255-5.191-7.883-11.583-7.883-19.174s2.628-13.998,7.883-19.222
			c5.256-5.222,11.858-7.834,19.807-7.834c7.946,0,14.55,2.612,19.806,7.834C478.256,251.748,480.884,258.155,480.884,265.746z
			 M440.202,265.746c0,4.282,1.217,7.77,3.65,10.463c2.433,2.693,5.547,4.038,9.345,4.038c3.795,0,6.91-1.345,9.343-4.038
			c2.433-2.693,3.65-6.181,3.65-10.463s-1.217-7.786-3.65-10.511c-2.433-2.725-5.547-4.088-9.343-4.088
			c-3.797,0-6.911,1.363-9.345,4.088C441.419,257.96,440.202,261.464,440.202,265.746z"/>
		<path fill="#DF5A49" d="M525.459,267.79v-28.224h14.697v52.36h-14.697v-6.91c-3.634,5.126-8.321,7.689-14.063,7.689
			s-10.559-1.801-14.453-5.402c-3.892-3.601-5.839-8.937-5.839-16.01v-31.728H505.8v28.515c0,8.047,2.953,12.069,8.857,12.069
			c2.921,0,5.451-1.053,7.593-3.163C524.388,274.88,525.459,271.813,525.459,267.79z"/>
		<path fill="#DF5A49" d="M568.574,262.729v29.197h-14.599v-52.36h14.599v5.839c4.412-4.477,9.375-6.715,14.89-6.715
			c5.514,0,10.138,1.946,13.87,5.839c3.729,3.894,5.595,9.085,5.595,15.572v31.825H588.33v-29.587
			c0-8.044-2.953-12.068-8.857-12.068c-2.919,0-5.467,1.056-7.64,3.163C569.659,255.544,568.574,258.641,568.574,262.729z"/>
		<path fill="#DF5A49" d="M637.14,292.705c-6.197,0-11.729-2.628-16.595-7.884c-4.866-5.256-7.299-11.776-7.299-19.562
			c0-7.787,2.368-14.161,7.105-19.125c4.736-4.964,10.284-7.445,16.644-7.445c6.357,0,11.548,2.238,15.571,6.715V219.71h14.599
			v72.215h-14.599v-6.91C648.479,290.142,643.335,292.705,637.14,292.705z M627.943,265.843c0,4.218,1.264,7.672,3.795,10.365
			c2.53,2.693,5.482,4.038,8.857,4.038c3.372,0,6.244-1.345,8.613-4.038c2.368-2.693,3.553-6.164,3.553-10.414
			c0-4.249-1.185-7.787-3.553-10.609c-2.368-2.823-5.272-4.233-8.711-4.233s-6.39,1.427-8.857,4.282
			C629.173,258.091,627.943,261.626,627.943,265.843z"/>
		<path fill="#DF5A49" d="M191.635,408.717h-15.28V354.02c-2.596,0.714-5.24,1.703-7.932,2.969c-2.693,1.266-4.753,2.352-6.18,3.26
			l-2.044,1.461l-7.981-11.583c3.438-3.114,8.126-5.725,14.063-7.835c5.937-2.107,11.825-3.162,17.665-3.162
			s11.711,1.055,17.616,3.162c5.904,2.11,10.575,4.721,14.015,7.835l-7.981,11.583c-4.803-3.504-10.122-6.067-15.962-7.689v54.696
			L191.635,408.717L191.635,408.717z"/>
		<path fill="#DF5A49" d="M276.504,382.537c0,7.591-2.628,13.983-7.883,19.174c-5.256,5.191-11.859,7.786-19.806,7.786
			c-7.949,0-14.551-2.595-19.807-7.786c-5.255-5.191-7.883-11.583-7.883-19.174s2.628-13.999,7.883-19.223
			c5.256-5.221,11.858-7.833,19.807-7.833c7.947,0,14.55,2.612,19.806,7.833C273.876,368.538,276.504,374.946,276.504,382.537z
			 M235.822,382.537c0,4.282,1.217,7.77,3.65,10.463s5.547,4.038,9.344,4.038c3.795,0,6.91-1.345,9.343-4.038
			c2.433-2.693,3.65-6.181,3.65-10.463s-1.217-7.786-3.65-10.512c-2.433-2.725-5.547-4.087-9.343-4.087s-6.911,1.362-9.344,4.087
			C237.038,374.751,235.822,378.255,235.822,382.537z"/>
		<path fill="#DF5A49" d="M308.28,409.496c-6.197,0-11.728-2.628-16.594-7.884s-7.299-11.776-7.299-19.562
			c0-7.787,2.368-14.162,7.105-19.125c4.736-4.965,10.283-7.445,16.643-7.445c6.358,0,11.548,2.238,15.572,6.715v-25.694h14.599
			v72.215h-14.599v-6.91C319.619,406.933,314.475,409.496,308.28,409.496z M299.083,382.634c0,4.218,1.265,7.673,3.795,10.366
			s5.483,4.038,8.857,4.038c3.373,0,6.244-1.345,8.613-4.038c2.368-2.693,3.552-6.164,3.552-10.414s-1.184-7.787-3.552-10.609
			c-2.369-2.823-5.272-4.234-8.711-4.234c-3.44,0-6.391,1.427-8.857,4.282C300.314,374.881,299.083,378.417,299.083,382.634z"/>
		<path fill="#DF5A49" d="M356.99,402.002c-4.997-4.996-7.493-11.565-7.493-19.709c0-8.142,2.562-14.646,7.688-19.513
			c5.125-4.866,11.062-7.299,17.811-7.299c5.256,0,9.83,1.75,13.723,5.254v-4.378h14.696v52.36h-14.696v-4.282
			c-4.153,3.374-8.89,5.061-14.209,5.061C367.825,409.496,361.986,406.998,356.99,402.002z M364.192,382.634
			c0,4.283,1.265,7.771,3.795,10.463c2.531,2.693,5.483,4.039,8.857,4.039c3.373,0,6.229-1.346,8.564-4.039
			c2.337-2.691,3.504-6.164,3.504-10.414c0-4.249-1.167-7.802-3.504-10.658c-2.336-2.854-5.224-4.282-8.662-4.282
			c-3.44,0-6.392,1.411-8.857,4.234C365.424,374.799,364.192,378.352,364.192,382.634z"/>
		<path fill="#DF5A49" d="M438.841,404.825c-14.08,0-21.12-7.526-21.12-22.579v-25.889h14.696v21.216
			c0,5.193,0.697,8.857,2.093,10.998c1.395,2.142,3.796,3.212,7.202,3.212c3.407,0,5.986-1.022,7.737-3.067
			c1.753-2.043,2.629-4.947,2.629-8.711v-23.747h14.696v43.991c0,9.148-2.417,16.286-7.25,21.412
			c-4.835,5.124-11.047,7.689-18.638,7.689c-5.905,0-11.08-1.494-15.523-4.478c-4.446-2.984-7.737-7.268-9.879-12.847l12.555-5.449
			c2.531,6.876,6.747,10.316,12.652,10.316c3.699,0,6.65-1.38,8.857-4.136c2.205-2.758,3.309-6.244,3.309-10.463
			c0-0.583-0.033-1.167-0.097-1.752C448.671,403.398,444.031,404.825,438.841,404.825z"/>
	</g>
	<g>
		<path fill="#344D5C" d="M178.637,241.263c-1.461,1.201-2.19,2.79-2.19,4.769c0,1.98,0.891,3.552,2.676,4.72
			c1.784,1.168,5.903,2.547,12.361,4.137c6.455,1.59,11.467,3.975,15.037,7.154c3.567,3.179,5.353,7.819,5.353,13.917
			c0,6.099-2.287,11.046-6.861,14.843c-4.574,3.795-10.594,5.693-18.054,5.693c-10.772,0-20.472-3.99-29.1-11.971l9.051-11.096
			c7.331,6.425,14.112,9.636,20.34,9.636c2.79,0,4.98-0.599,6.57-1.801c1.589-1.199,2.384-2.821,2.384-4.866
			c0-2.043-0.844-3.664-2.53-4.866c-1.689-1.2-5.029-2.417-10.025-3.65c-7.917-1.881-13.708-4.331-17.373-7.348
			c-3.666-3.017-5.499-7.752-5.499-14.21c0-6.455,2.319-11.435,6.959-14.939c4.638-3.503,10.429-5.255,17.373-5.255
			c4.541,0,9.083,0.779,13.625,2.336c4.541,1.557,8.499,3.764,11.874,6.618l-7.689,11.095c-5.905-4.477-12.004-6.716-18.297-6.716
			C182.092,239.462,180.097,240.063,178.637,241.263z"/>
		<path fill="#344D5C" d="M236.692,227.686v15.67h12.653v11.387h-12.653v22.579c0,2.012,0.519,3.586,1.557,4.721
			c1.038,1.136,2.271,1.703,3.699,1.703c2.725,0,5.027-1.231,6.91-3.699l5.451,10.22c-4.542,4.152-9.329,6.229-14.356,6.229
			c-5.029,0-9.28-1.655-12.749-4.965c-3.472-3.309-5.208-7.817-5.208-13.528v-50.317L236.692,227.686L236.692,227.686z"/>
		<path fill="#344D5C" d="M266.764,289.001c-4.997-4.996-7.493-11.565-7.493-19.708c0-8.142,2.562-14.647,7.688-19.514
			c5.125-4.866,11.062-7.299,17.811-7.299c5.256,0,9.83,1.751,13.723,5.255v-4.379h14.696v52.36h-14.696v-4.282
			c-4.153,3.374-8.89,5.061-14.209,5.061C277.599,296.495,271.76,293.997,266.764,289.001z M273.967,269.633
			c0,4.283,1.265,7.771,3.795,10.462c2.531,2.693,5.483,4.039,8.857,4.039c3.373,0,6.229-1.346,8.564-4.039
			c2.337-2.691,3.504-6.164,3.504-10.413s-1.167-7.802-3.504-10.658c-2.336-2.854-5.224-4.282-8.662-4.282
			c-3.44,0-6.392,1.411-8.857,4.233C275.198,261.799,273.967,265.351,273.967,269.633z"/>
		<path fill="#344D5C" d="M355.039,256.203c-4.348,0-7.592,1.542-9.733,4.623c-2.142,3.082-3.213,7.153-3.213,12.214v22.676h-14.599
			v-52.36h14.599v6.91c1.882-2.141,4.234-3.957,7.056-5.45c2.823-1.492,5.694-2.271,8.613-2.336l0.097,13.723L355.039,256.203
			L355.039,256.203z"/>
		<path fill="#344D5C" d="M397.667,242.48c6.358,0,11.906,2.481,16.643,7.445c4.736,4.964,7.105,11.338,7.105,19.125
			c0,7.786-2.433,14.306-7.299,19.562s-10.399,7.884-16.594,7.884c-6.197,0-11.339-2.563-15.427-7.689v6.91h-14.599v-72.215h14.599
			v25.694C386.117,244.718,391.307,242.48,397.667,242.48z M381.9,269.585c0,4.25,1.183,7.721,3.552,10.414
			c2.367,2.693,5.239,4.038,8.613,4.038c3.372,0,6.326-1.345,8.857-4.038s3.795-6.148,3.795-10.365
			c0-4.217-1.233-7.753-3.698-10.609c-2.467-2.854-5.418-4.282-8.857-4.282c-3.44,0-6.343,1.411-8.711,4.233
			C383.083,261.799,381.9,265.336,381.9,269.585z"/>
		<path fill="#344D5C" d="M484.675,269.536c0,7.591-2.628,13.983-7.882,19.174c-5.256,5.191-11.86,7.786-19.806,7.786
			c-7.95,0-14.551-2.595-19.807-7.786c-5.255-5.191-7.883-11.583-7.883-19.174s2.628-13.998,7.883-19.222
			c5.256-5.222,11.858-7.834,19.807-7.834c7.946,0,14.55,2.612,19.806,7.834C482.047,255.538,484.675,261.945,484.675,269.536z
			 M443.992,269.536c0,4.282,1.217,7.77,3.65,10.463s5.547,4.038,9.344,4.038c3.795,0,6.91-1.345,9.343-4.038
			c2.433-2.693,3.65-6.181,3.65-10.463s-1.217-7.786-3.65-10.511c-2.433-2.725-5.547-4.088-9.343-4.088
			c-3.797,0-6.911,1.363-9.344,4.088C445.209,261.75,443.992,265.254,443.992,269.536z"/>
		<path fill="#344D5C" d="M529.249,271.58v-28.224h14.697v52.36h-14.697v-6.91c-3.634,5.126-8.321,7.689-14.063,7.689
			s-10.559-1.801-14.453-5.402c-3.892-3.601-5.839-8.937-5.839-16.01v-31.728h14.696v28.515c0,8.047,2.953,12.069,8.857,12.069
			c2.921,0,5.451-1.053,7.593-3.163C528.178,278.67,529.249,275.603,529.249,271.58z"/>
		<path fill="#344D5C" d="M572.365,266.519v29.197h-14.599v-52.36h14.599v5.839c4.412-4.477,9.375-6.715,14.89-6.715
			c5.514,0,10.138,1.946,13.87,5.839c3.729,3.894,5.595,9.085,5.595,15.572v31.825h-14.599v-29.587
			c0-8.044-2.953-12.068-8.857-12.068c-2.919,0-5.467,1.056-7.64,3.163C573.45,259.334,572.365,262.431,572.365,266.519z"/>
		<path fill="#344D5C" d="M640.93,296.495c-6.197,0-11.729-2.628-16.595-7.884c-4.866-5.256-7.299-11.776-7.299-19.562
			c0-7.787,2.368-14.161,7.105-19.125c4.736-4.964,10.284-7.445,16.644-7.445c6.357,0,11.548,2.238,15.571,6.715V223.5h14.599
			v72.215h-14.599v-6.91C652.269,293.932,647.125,296.495,640.93,296.495z M631.733,269.633c0,4.218,1.264,7.672,3.795,10.365
			c2.53,2.693,5.482,4.038,8.857,4.038c3.372,0,6.244-1.345,8.613-4.038c2.368-2.693,3.553-6.164,3.553-10.414
			c0-4.249-1.185-7.787-3.553-10.609c-2.368-2.823-5.272-4.233-8.711-4.233s-6.39,1.427-8.857,4.282
			C632.964,261.881,631.733,265.417,631.733,269.633z"/>
		<path fill="#344D5C" d="M195.425,412.507h-15.28V357.81c-2.596,0.714-5.24,1.703-7.932,2.969c-2.693,1.266-4.753,2.352-6.179,3.26
			l-2.044,1.461l-7.981-11.583c3.438-3.114,8.126-5.725,14.063-7.835c5.937-2.107,11.825-3.162,17.665-3.162
			c5.84,0,11.711,1.055,17.616,3.162c5.904,2.11,10.575,4.721,14.015,7.835l-7.981,11.583c-4.803-3.504-10.122-6.067-15.962-7.689
			L195.425,412.507L195.425,412.507z"/>
		<path fill="#344D5C" d="M280.294,386.327c0,7.591-2.628,13.983-7.883,19.174c-5.256,5.191-11.859,7.786-19.806,7.786
			c-7.949,0-14.551-2.595-19.807-7.786c-5.255-5.191-7.883-11.583-7.883-19.174s2.628-13.999,7.883-19.223
			c5.256-5.221,11.858-7.833,19.807-7.833c7.947,0,14.55,2.612,19.806,7.833C277.666,372.329,280.294,378.736,280.294,386.327z
			 M239.612,386.327c0,4.282,1.217,7.77,3.65,10.463c2.433,2.693,5.547,4.038,9.344,4.038c3.795,0,6.91-1.345,9.343-4.038
			c2.433-2.693,3.65-6.181,3.65-10.463s-1.217-7.786-3.65-10.512c-2.433-2.725-5.547-4.087-9.343-4.087s-6.911,1.362-9.344,4.087
			C240.828,378.541,239.612,382.045,239.612,386.327z"/>
		<path fill="#344D5C" d="M312.07,413.287c-6.197,0-11.728-2.628-16.594-7.884s-7.299-11.776-7.299-19.562
			c0-7.787,2.368-14.162,7.105-19.125c4.736-4.965,10.283-7.445,16.643-7.445c6.358,0,11.548,2.238,15.572,6.715v-25.694h14.599
			v72.215h-14.599v-6.91C323.409,410.723,318.265,413.287,312.07,413.287z M302.873,386.424c0,4.218,1.265,7.673,3.795,10.366
			s5.483,4.038,8.857,4.038c3.373,0,6.244-1.345,8.613-4.038c2.368-2.693,3.552-6.164,3.552-10.414s-1.184-7.787-3.552-10.609
			c-2.369-2.823-5.272-4.234-8.711-4.234c-3.44,0-6.391,1.427-8.857,4.282C304.104,378.671,302.873,382.207,302.873,386.424z"/>
		<path fill="#344D5C" d="M360.78,405.792c-4.997-4.996-7.493-11.565-7.493-19.709c0-8.142,2.562-14.646,7.688-19.513
			c5.125-4.866,11.062-7.299,17.811-7.299c5.256,0,9.83,1.75,13.723,5.254v-4.378h14.696v52.36h-14.696v-4.282
			c-4.153,3.374-8.89,5.061-14.209,5.061C371.615,413.287,365.776,410.788,360.78,405.792z M367.983,386.424
			c0,4.283,1.265,7.772,3.795,10.463c2.531,2.693,5.483,4.039,8.857,4.039c3.373,0,6.229-1.346,8.564-4.039
			c2.337-2.691,3.504-6.164,3.504-10.414c0-4.249-1.167-7.802-3.504-10.658c-2.336-2.854-5.224-4.282-8.662-4.282
			c-3.44,0-6.392,1.411-8.857,4.234C369.214,378.589,367.983,382.142,367.983,386.424z"/>
		<path fill="#344D5C" d="M442.631,408.615c-14.08,0-21.12-7.526-21.12-22.579v-25.889h14.696v21.216
			c0,5.193,0.697,8.857,2.093,10.998c1.395,2.142,3.796,3.213,7.202,3.213c3.407,0,5.986-1.022,7.737-3.067
			c1.753-2.043,2.629-4.947,2.629-8.711v-23.747h14.695v43.991c0,9.148-2.417,16.286-7.25,21.412
			c-4.835,5.124-11.047,7.689-18.638,7.689c-5.905,0-11.08-1.494-15.523-4.478c-4.446-2.984-7.737-7.268-9.879-12.847l12.555-5.449
			c2.531,6.876,6.747,10.316,12.652,10.316c3.699,0,6.65-1.38,8.857-4.136c2.205-2.758,3.309-6.244,3.309-10.463
			c0-0.583-0.033-1.167-0.097-1.752C452.461,407.188,447.821,408.615,442.631,408.615z"/>
	</g>
</g>
</svg>
